<svg width="26" height="28" viewBox="0 0 26 28" fill="none" xmlns="http://www.w3.org/2000/svg">
<path d="M11.2991 11.4269H8.03247V11.1714H18.3324V11.4269H15.0658H14.5658V11.9269V19.588H14.3102V16.3213V15.8213H13.8102H12.5547H12.0547V16.3213V19.588H11.7991V11.9269V11.4269H11.2991ZM13.1825 8.03247C13.5969 8.03247 13.938 8.37361 13.938 8.78802C13.938 9.20243 13.5969 9.54358 13.1825 9.54358C12.768 9.54358 12.4269 9.20243 12.4269 8.78802C12.4269 8.37361 12.768 8.03247 13.1825 8.03247Z" fill="#324A50" stroke="#324A50"/>
<path d="M25.6567 17.2225L23.6489 15.5059C23.7439 14.9235 23.793 14.3288 23.793 13.7341C23.793 13.1395 23.7439 12.5448 23.6489 11.9624L25.6567 10.2458C25.8081 10.1162 25.9165 9.94349 25.9674 9.75075C26.0184 9.55801 26.0094 9.35434 25.9418 9.16682L25.9142 9.08712C25.3614 7.54228 24.5337 6.1102 23.4711 4.86005L23.4159 4.79568C23.287 4.64411 23.1152 4.53515 22.9231 4.48317C22.7311 4.43118 22.5278 4.43861 22.34 4.50448L19.8479 5.39035C18.9283 4.63628 17.9014 4.04161 16.7918 3.62473L16.3105 1.01922C16.2742 0.823166 16.1791 0.642803 16.0379 0.502091C15.8966 0.361379 15.7159 0.266979 15.5197 0.231431L15.4369 0.216105C13.8399 -0.0720348 12.1601 -0.0720348 10.5631 0.216105L10.4803 0.231431C10.2841 0.266979 10.1034 0.361379 9.96213 0.502091C9.82087 0.642803 9.72577 0.823166 9.68946 1.01922L9.20514 3.63699C8.10435 4.05396 7.07925 4.64832 6.17048 5.39648L3.65999 4.50448C3.47229 4.43809 3.26883 4.43039 3.07665 4.48241C2.88446 4.53442 2.71266 4.64369 2.58407 4.79568L2.52889 4.86005C1.46751 6.11108 0.63997 7.54293 0.085835 9.08712L0.0582471 9.16682C-0.079692 9.54998 0.0337247 9.97912 0.343321 10.2458L2.37562 11.9808C2.2806 12.5571 2.23462 13.1456 2.23462 13.7311C2.23462 14.3196 2.2806 14.9081 2.37562 15.4814L0.343321 17.2163C0.191882 17.346 0.0834945 17.5186 0.032572 17.7114C-0.0183504 17.9041 -0.0093952 18.1078 0.0582471 18.2953L0.085835 18.375C0.640657 19.9199 1.46216 21.3453 2.52889 22.6021L2.58407 22.6665C2.71298 22.818 2.88478 22.927 3.07685 22.979C3.26892 23.031 3.47223 23.0235 3.65999 22.9577L6.17048 22.0657C7.08395 22.8167 8.10469 23.4113 9.20514 23.8251L9.68946 26.4429C9.72577 26.639 9.82087 26.8193 9.96213 26.96C10.1034 27.1008 10.2841 27.1952 10.4803 27.2307L10.5631 27.246C12.1748 27.5357 13.8252 27.5357 15.4369 27.246L15.5197 27.2307C15.7159 27.1952 15.8966 27.1008 16.0379 26.96C16.1791 26.8193 16.2742 26.639 16.3105 26.4429L16.7918 23.8374C17.901 23.4216 18.9337 22.825 19.8479 22.0718L22.34 22.9577C22.5277 23.024 22.7312 23.0317 22.9234 22.9797C23.1155 22.9277 23.2873 22.8184 23.4159 22.6665L23.4711 22.6021C24.5378 21.3422 25.3593 19.9199 25.9142 18.375L25.9418 18.2953C26.0797 17.9183 25.9663 17.4891 25.6567 17.2225ZM21.4725 12.3241C21.5492 12.787 21.589 13.2621 21.589 13.7372C21.589 14.2123 21.5492 14.6874 21.4725 15.1503L21.2702 16.3795L23.56 18.3382C23.2129 19.1379 22.7747 19.895 22.2542 20.5943L19.4096 19.5858L18.4471 20.3767C17.7145 20.9775 16.8991 21.4495 16.0163 21.7806L14.8484 22.2189L14.2997 25.1923C13.434 25.2904 12.5599 25.2904 11.6942 25.1923L11.1455 22.2128L9.9868 21.7683C9.11318 21.4373 8.30087 20.9652 7.5744 20.3675L6.61189 19.5736L3.74888 20.5912C3.22778 19.8893 2.79251 19.1321 2.44306 18.3352L4.75737 16.358L4.55813 15.1319C4.48456 14.6752 4.44471 14.2031 4.44471 13.7372C4.44471 13.2682 4.48149 12.7992 4.55813 12.3425L4.75737 11.1164L2.44306 9.13923C2.78944 8.33918 3.22778 7.58511 3.74888 6.88316L6.61189 7.90084L7.5744 7.10693C8.30087 6.50919 9.11318 6.03713 9.9868 5.70608L11.1486 5.26774L11.6972 2.28826C12.5586 2.19017 13.4383 2.19017 14.3028 2.28826L14.8514 5.26161L16.0193 5.69995C16.8991 6.031 17.7175 6.50306 18.4501 7.10386L19.4126 7.89471L22.2572 6.88622C22.7784 7.58818 23.2136 8.34531 23.5631 9.14229L21.2733 11.101L21.4725 12.3241Z" fill="#324A50"/>
</svg>
