<svg width="24" height="29" viewBox="0 0 24 29" fill="none" xmlns="http://www.w3.org/2000/svg">
<path d="M19.9966 27.3434C18.4459 28.8467 16.7527 28.6093 15.1229 27.8973C13.3981 27.1694 11.8157 27.1377 9.99598 27.8973C7.71736 28.8783 6.51476 28.5935 5.15392 27.3434C-2.56807 19.3841 -1.42876 7.2631 7.3376 6.82003C9.4738 6.9308 10.9612 7.99099 12.2113 8.08593C14.0785 7.70616 15.8666 6.61433 17.8604 6.75674C20.2498 6.94662 22.0537 7.89605 23.2405 9.60501C18.3035 12.5641 19.4744 19.0676 24 20.8873C23.098 23.2609 21.9271 25.6186 19.9808 27.3593L19.9966 27.3434ZM12.0531 6.72509C11.8157 3.1964 14.6798 0.284827 17.9712 0C18.43 4.08253 14.2684 7.12069 12.0531 6.72509Z" fill="black"/>
</svg>
