<svg width="21" height="31" viewBox="0 0 21 31" fill="none" xmlns="http://www.w3.org/2000/svg">
<path d="M7.33333 11.4744V23.1667C7.33333 23.3605 7.25634 23.5464 7.1193 23.6834C6.98225 23.8204 6.79638 23.8974 6.60256 23.8974C6.40875 23.8974 6.22288 23.8204 6.08583 23.6834C5.94879 23.5464 5.87179 23.3605 5.87179 23.1667V11.4744C5.87179 11.2805 5.94879 11.0947 6.08583 10.9576C6.22288 10.8206 6.40875 10.7436 6.60256 10.7436C6.79638 10.7436 6.98225 10.8206 7.1193 10.9576C7.25634 11.0947 7.33333 11.2805 7.33333 11.4744ZM10.5 10.7436C10.3062 10.7436 10.1203 10.8206 9.98327 10.9576C9.84622 11.0947 9.76923 11.2805 9.76923 11.4744V23.1667C9.76923 23.3605 9.84622 23.5464 9.98327 23.6834C10.1203 23.8204 10.3062 23.8974 10.5 23.8974C10.6938 23.8974 10.8797 23.8204 11.0167 23.6834C11.1538 23.5464 11.2308 23.3605 11.2308 23.1667V11.4744C11.2308 11.2805 11.1538 11.0947 11.0167 10.9576C10.8797 10.8206 10.6938 10.7436 10.5 10.7436ZM14.3974 10.7436C14.2036 10.7436 14.0177 10.8206 13.8807 10.9576C13.7437 11.0947 13.6667 11.2805 13.6667 11.4744V23.1667C13.6667 23.3605 13.7437 23.5464 13.8807 23.6834C14.0177 23.8204 14.2036 23.8974 14.3974 23.8974C14.5912 23.8974 14.7771 23.8204 14.9142 23.6834C15.0512 23.5464 15.1282 23.3605 15.1282 23.1667V11.4744C15.1282 11.2805 15.0512 11.0947 14.9142 10.9576C14.7771 10.8206 14.5912 10.7436 14.3974 10.7436ZM20 8.55128V26.0897C20 26.542 19.8204 26.9757 19.5006 27.2955C19.1808 27.6152 18.7471 27.7949 18.2949 27.7949H16.1026V29.9872C16.1026 30.181 16.0256 30.3669 15.8885 30.5039C15.7515 30.641 15.5656 30.718 15.3718 30.718C15.178 30.718 14.9921 30.641 14.8551 30.5039C14.718 30.3669 14.641 30.181 14.641 29.9872V27.7949H6.35897V29.9872C6.35897 30.181 6.28198 30.3669 6.14494 30.5039C6.00789 30.641 5.82202 30.718 5.62821 30.718C5.43439 30.718 5.24852 30.641 5.11147 30.5039C4.97443 30.3669 4.89744 30.181 4.89744 29.9872V27.7949H2.70513C2.2529 27.7949 1.81919 27.6152 1.49942 27.2955C1.17965 26.9757 1 26.542 1 26.0897V8.55128C1 8.09905 1.17965 7.66535 1.49942 7.34558C1.81919 7.0258 2.2529 6.84615 2.70513 6.84615H5.87179V3.67949C5.87179 2.96884 6.1541 2.28731 6.6566 1.7848C7.1591 1.2823 7.84064 1 8.55128 1H12.4487C13.1594 1 13.8409 1.2823 14.3434 1.7848C14.8459 2.28731 15.1282 2.96884 15.1282 3.67949V6.84615H18.2949C18.7471 6.84615 19.1808 7.0258 19.5006 7.34558C19.8204 7.66535 20 8.09905 20 8.55128ZM7.33333 6.84615H13.6667V3.67949C13.6667 3.35647 13.5383 3.04668 13.3099 2.81827C13.0815 2.58986 12.7717 2.46154 12.4487 2.46154H8.55128C8.22826 2.46154 7.91847 2.58986 7.69006 2.81827C7.46165 3.04668 7.33333 3.35647 7.33333 3.67949V6.84615ZM18.5385 8.55128C18.5385 8.48668 18.5128 8.42472 18.4671 8.37904C18.4214 8.33336 18.3595 8.30769 18.2949 8.30769H2.70513C2.64052 8.30769 2.57857 8.33336 2.53288 8.37904C2.4872 8.42472 2.46154 8.48668 2.46154 8.55128V26.0897C2.46154 26.1544 2.4872 26.2163 2.53288 26.262C2.57857 26.3077 2.64052 26.3333 2.70513 26.3333H18.2949C18.3595 26.3333 18.4214 26.3077 18.4671 26.262C18.5128 26.2163 18.5385 26.1544 18.5385 26.0897V8.55128Z" fill="#324A50" stroke="#324A50" stroke-width="0.5"/>
</svg>
