<svg width="18" height="24" viewBox="0 0 18 24" fill="none" xmlns="http://www.w3.org/2000/svg">
<path d="M9 0C6.6139 0.0027697 4.32633 0.951871 2.6391 2.6391C0.951871 4.32632 0.0027697 6.6139 0 9C0 11.407 0.966977 14.0777 2.58593 16.1445C3.88047 17.797 5.43558 18.9094 7.09116 19.396L5.91174 22.1484C5.87091 22.2438 5.85438 22.3479 5.86363 22.4513C5.87288 22.5547 5.90763 22.6542 5.96476 22.7409C6.0219 22.8276 6.09963 22.8987 6.19101 22.948C6.28238 22.9973 6.38455 23.0231 6.48837 23.0233H11.5116C11.6154 23.0231 11.7176 22.9973 11.809 22.948C11.9004 22.8987 11.9781 22.8276 12.0352 22.7409C12.0924 22.6542 12.1271 22.5547 12.1364 22.4513C12.1456 22.3479 12.1291 22.2438 12.0883 22.1484L10.9088 19.396C12.5644 18.9094 14.1195 17.797 15.4088 16.1445C17.033 14.0777 18 11.407 18 9C17.9972 6.6139 17.0481 4.32632 15.3609 2.6391C13.6737 0.951871 11.3861 0.0027697 9 0ZM7.34337 19.4651L7.40407 19.4798C7.38323 19.4779 7.36278 19.4729 7.34337 19.4651ZM10.5593 21.7674H7.4407L8.35116 19.642C8.78264 19.6852 9.21736 19.6852 9.64884 19.642L10.5593 21.7674ZM9 18.4186C5.49209 18.4186 1.25581 14.2169 1.25581 9C1.25581 6.94611 2.07172 4.97635 3.52403 3.52403C4.97635 2.07172 6.94611 1.25581 9 1.25581C11.0539 1.25581 13.0236 2.07172 14.476 3.52403C15.9283 4.97635 16.7442 6.94611 16.7442 9C16.7442 14.2169 12.5079 18.4186 9 18.4186ZM14.1279 8.78232C14.0933 8.78771 14.0583 8.79051 14.0233 8.7907C13.875 8.79055 13.7315 8.73793 13.6183 8.64216C13.5051 8.54639 13.4295 8.41364 13.4048 8.26744C13.2428 7.35288 12.8037 6.5102 12.1468 5.85354C11.49 5.19688 10.6472 4.75798 9.73256 4.59628C9.56825 4.56852 9.42169 4.47663 9.32513 4.34082C9.22857 4.20501 9.18992 4.0364 9.21767 3.87209C9.24543 3.70778 9.33732 3.56123 9.47313 3.46467C9.60894 3.36811 9.77755 3.32945 9.94186 3.35721C11.1125 3.56518 12.191 4.12753 13.0318 4.96825C13.8725 5.80896 14.4348 6.88752 14.6428 8.05814C14.6566 8.1395 14.6542 8.22279 14.6358 8.30323C14.6174 8.38368 14.5833 8.45971 14.5355 8.52697C14.4876 8.59422 14.427 8.6514 14.3571 8.69521C14.2872 8.73903 14.2093 8.76863 14.1279 8.78232Z" fill="#324A50"/>
</svg>
