<svg width="38" height="38" viewBox="0 0 38 38" fill="none" xmlns="http://www.w3.org/2000/svg">
<path d="M33.0593 20.2983L33.3475 19.7917C36.4088 14.4907 34.5928 7.71241 29.2918 4.65183C23.99 1.59125 17.2117 3.40733 14.1511 8.70833L14.0514 8.88091C13.8939 9.15198 13.8491 9.47399 13.9265 9.77775C14.004 10.0815 14.1974 10.3428 14.4654 10.5054L22.162 15.1557L17.8981 22.2157C14.1693 22.5443 10.9829 24.5235 9.26892 27.3236C9.62089 27.2912 9.97575 27.3318 10.3114 27.4426C10.647 27.5535 10.9561 27.7324 11.2196 27.968C12.7808 25.7228 15.5991 24.1458 19.0001 24.1458C22.4019 24.1458 25.221 25.7236 26.7822 27.9696C27.0452 27.7337 27.3541 27.5546 27.6894 27.4433C28.0247 27.332 28.3794 27.291 28.7313 27.3228C27.0331 24.5488 23.8894 22.5807 20.2042 22.2245L23.8554 16.1793L31.4008 20.7377C31.5378 20.8201 31.69 20.8741 31.8483 20.8966C32.0066 20.9191 32.1678 20.9097 32.3223 20.8688C32.4769 20.8279 32.6217 20.7564 32.7481 20.6585C32.8746 20.5607 32.9801 20.4385 33.0585 20.2991L33.0593 20.2983ZM29.8269 7.46937C32.9223 10.2386 33.8003 14.8596 31.7333 18.6271L27.8747 16.2957L27.8881 16.2735C27.9831 16.1231 28.1114 15.9085 28.2586 15.6346C28.5531 15.0876 28.9244 14.3015 29.2427 13.3309C29.7493 11.7879 30.1278 9.75491 29.8269 7.46937ZM26.4576 5.55591C24.7563 6.32066 23.2878 7.58654 22.1984 8.71466C21.3724 9.57266 20.6146 10.4938 19.9319 11.4697L19.9184 11.4879L16.162 9.21816C18.4222 5.80291 22.6544 4.36762 26.4576 5.55591ZM21.6165 12.5139C22.2229 11.6567 22.893 10.8463 23.621 10.0898C24.7911 8.87854 26.2407 7.70687 27.7733 7.15746C28.1779 9.30841 27.8446 11.2448 27.3625 12.7134C27.1386 13.3976 26.8551 14.061 26.5154 14.6957C26.4107 14.8915 26.299 15.0835 26.1805 15.2712L21.6165 12.5139ZM29.0535 29.0652C28.8951 28.9586 28.7092 28.9 28.5183 28.8966H28.4795C28.2755 28.9012 28.0778 28.9685 27.9135 29.0895C27.7491 29.2105 27.6261 29.3792 27.5612 29.5727L27.5604 29.5751C27.5263 29.6669 26.5344 32.4583 23.7501 32.4583C20.9634 32.4583 19.9778 29.6875 19.939 29.5719C19.8734 29.3748 19.7474 29.2033 19.5789 29.0818C19.4103 28.9603 19.2078 28.8949 19.0001 28.8949C18.7923 28.8949 18.5898 28.9603 18.4213 29.0818C18.2528 29.2033 18.1268 29.3748 18.0612 29.5719L18.0604 29.5743C18.0263 29.6669 17.0344 32.4583 14.2501 32.4583C11.4634 32.4583 10.4778 29.6875 10.4422 29.5719C10.378 29.3781 10.2551 29.2091 10.0907 29.0882C9.92634 28.9673 9.72863 28.9001 9.52463 28.8958H9.50721C9.30599 28.895 9.10931 28.9556 8.9434 29.0695C8.77748 29.1833 8.65022 29.3451 8.57859 29.5331C8.56513 29.5687 7.20267 33.0521 4.15951 33.0521C3.89705 33.0521 3.64535 33.1563 3.45976 33.3419C3.27418 33.5275 3.16992 33.7792 3.16992 34.0417C3.16992 34.3041 3.27418 34.5558 3.45976 34.7414C3.64535 34.927 3.89705 35.0312 4.15951 35.0312C5.23592 34.9999 6.28763 34.7013 7.21991 34.1623C8.1522 33.6233 8.93578 32.8609 9.50009 31.9437C10.0316 32.7115 10.7412 33.339 11.5683 33.7726C12.3953 34.2062 13.3151 34.433 14.2488 34.4334C15.1826 34.4339 16.1026 34.2081 16.9301 33.7753C17.7575 33.3426 18.4678 32.7157 19.0001 31.9485C19.5324 32.7157 20.2426 33.3426 21.0701 33.7753C21.8975 34.2081 22.8175 34.4339 23.7513 34.4334C24.6851 34.433 25.6049 34.2062 26.4319 33.7726C27.2589 33.339 27.9686 32.7115 28.5001 31.9437C29.0646 32.8614 29.8487 33.6241 30.7816 34.1631C31.7145 34.7021 32.7669 35.0005 33.8438 35.0312C34.1063 35.0312 34.358 34.927 34.5436 34.7414C34.7292 34.5558 34.8334 34.3041 34.8334 34.0417C34.8334 33.7792 34.7292 33.5275 34.5436 33.3419C34.358 33.1563 34.1063 33.0521 33.8438 33.0521C31.8805 33.0521 30.6075 31.5772 29.9536 30.537V30.5354C29.7498 30.2167 29.5732 29.8814 29.4255 29.5331C29.3529 29.3422 29.2229 29.1793 29.0535 29.0652Z" fill="#324A50"/>
</svg>
