<svg width="22" height="26" viewBox="0 0 22 26" fill="none" xmlns="http://www.w3.org/2000/svg">
<path d="M10.9778 0C12.575 0 13.8686 1.12891 13.8686 2.52183L13.8554 2.72674C15.1284 3.16926 16.3589 3.90343 17.4501 4.87646C18.7143 5.99909 19.4535 7.48754 19.6808 9.39714V16.2838L21.4276 18.9213C22.0142 19.7585 22.202 20.46 21.7444 21.0672C21.3249 21.6216 20.5755 21.8152 19.5591 21.8001H15.6432C15.1856 23.7097 13.2467 25.1429 10.9265 25.1429C8.60334 25.1429 6.66592 23.7097 6.2098 21.8014H1.87444L1.79231 21.7976C0.872727 21.7297 0.18781 21.3488 0.0338132 20.6159C-0.0703176 20.1168 0.0675456 19.5813 0.42687 18.9426L2.22349 16.2021L2.2279 9.32171C2.38482 7.80057 3.04921 6.38377 4.20492 5.08389C5.18316 3.98389 6.58086 3.17429 8.09736 2.70789C8.09136 2.646 8.08843 2.58393 8.08856 2.52183C8.08856 1.12891 9.38213 0 10.9778 0ZM13.6442 21.8014H8.20882C8.61214 22.7694 9.67545 23.4608 10.9265 23.4608C12.1761 23.4608 13.2408 22.7694 13.6442 21.8014ZM11.1201 3.92731C9.13427 3.92731 6.95045 4.73817 5.72728 6.11474C4.79157 7.16571 4.26945 8.27954 4.15065 9.39589V16.4233C4.15065 16.5704 4.10665 16.715 4.02305 16.8419L2.12963 19.7283C2.05625 19.8534 1.99731 19.9844 1.95363 20.1193H19.5738C19.7512 20.1218 19.8861 20.1155 19.9785 20.113C19.9171 19.9987 19.8481 19.8874 19.7717 19.7799L17.8842 16.9299C17.7994 16.8015 17.7549 16.6564 17.7551 16.5088L17.7595 9.4864C17.5821 8.0256 17.0174 6.89166 16.0744 6.05189C14.5491 4.69417 12.7568 3.92731 11.1201 3.92731ZM10.9778 1.6808C10.7639 1.68207 10.5564 1.74407 10.3879 1.85711C10.2194 1.97016 10.0994 2.12787 10.0465 2.3056C10.4073 2.26663 10.7652 2.24651 11.1201 2.24651C11.3797 2.24651 11.6422 2.25909 11.9047 2.28674C11.848 2.11314 11.7269 1.96009 11.5596 1.85076C11.3924 1.74143 11.1881 1.68177 10.9778 1.6808Z" fill="#324A50"/>
</svg>
