<svg width="21" height="24" viewBox="0 0 21 24" fill="none" xmlns="http://www.w3.org/2000/svg">
<path d="M3.05426 19.0189H21V0H3.00473C2.20862 0.00255967 1.44584 0.319951 0.882894 0.882894C0.319951 1.44584 0.00255967 2.20862 0 3.00473V20.5171H0.00054489C0.00054489 20.5246 0 20.532 0 20.5395C0 22.2928 1.376 23.7737 3.00473 23.7737H21V22.1887H3.00473C2.26166 22.1887 1.58491 21.4026 1.58491 20.5394C1.58491 19.7152 2.25775 19.0189 3.05426 19.0189ZM15.8491 1.6014V10.1607L13.4519 8.05622L11.0943 10.1483V1.6014H15.8491ZM9.50943 1.58491V12.283H11.0766L13.4576 10.1702L15.8642 12.283H17.434V1.58491H19.4151V17.434H4.75868L4.75472 1.58491H9.50943ZM3.00473 1.58491H3.16981L3.17358 17.434H3.05406C2.53871 17.4341 2.03231 17.5686 1.58491 17.8244V3.01712C1.58369 2.63904 1.7325 2.27592 1.99868 2.00743C2.26485 1.73893 2.62666 1.58698 3.00473 1.58491Z" fill="#324A50"/>
</svg>
