<svg width="27" height="24" viewBox="0 0 27 24" fill="none" xmlns="http://www.w3.org/2000/svg">
<path d="M18.5044 6.37168C18.2743 6.37168 18.0752 6.28761 17.9071 6.11947C17.7389 5.95133 17.6549 5.75221 17.6549 5.52212C17.6549 5.0708 17.7389 4.63717 17.9071 4.22124C18.0752 3.80531 18.323 3.43805 18.6504 3.11947L19.6991 2.05752C20.0354 1.72124 20.2035 1.31858 20.2035 0.849558C20.2035 0.619469 20.2876 0.420354 20.4558 0.252212C20.6239 0.0840708 20.823 0 21.0531 0C21.2832 0 21.4823 0.0840708 21.6504 0.252212C21.8186 0.420354 21.9027 0.619469 21.9027 0.849558C21.9027 1.30088 21.8186 1.73451 21.6504 2.15044C21.4823 2.56637 21.2345 2.93363 20.9071 3.25221L19.8584 4.31416C19.5221 4.65044 19.354 5.0531 19.354 5.52212C19.354 5.75221 19.2699 5.95133 19.1018 6.11947C18.9336 6.28761 18.7345 6.37168 18.5044 6.37168ZM13.4071 6.37168C13.177 6.37168 12.9779 6.28761 12.8097 6.11947C12.6416 5.95133 12.5575 5.75221 12.5575 5.52212C12.5575 5.0708 12.6416 4.63717 12.8097 4.22124C12.9779 3.80531 13.2257 3.43805 13.5531 3.11947L14.6018 2.05752C14.9381 1.72124 15.1062 1.31858 15.1062 0.849558C15.1062 0.619469 15.1903 0.420354 15.3584 0.252212C15.5265 0.0840708 15.7257 0 15.9558 0C16.1858 0 16.385 0.0840708 16.5531 0.252212C16.7212 0.420354 16.8053 0.619469 16.8053 0.849558C16.8053 1.30088 16.7212 1.73451 16.5531 2.15044C16.385 2.56637 16.1372 2.93363 15.8097 3.25221L14.7611 4.31416C14.4248 4.65044 14.2566 5.0531 14.2566 5.52212C14.2566 5.75221 14.1726 5.95133 14.0044 6.11947C13.8363 6.28761 13.6372 6.37168 13.4071 6.37168ZM24.4513 8.70796C24.8053 8.70796 25.1372 8.77434 25.4469 8.90708C25.7566 9.03982 26.0265 9.22124 26.2566 9.45133C26.4867 9.68142 26.6681 9.95133 26.8009 10.2611C26.9336 10.5708 27 10.9027 27 11.2566V16.354C27 16.708 26.9336 17.0398 26.8009 17.3496C26.6681 17.6593 26.4867 17.9292 26.2566 18.1593C26.0265 18.3894 25.7566 18.5708 25.4469 18.7035C25.1372 18.8363 24.8053 18.9027 24.4513 18.9027H23.6947C23.677 18.9646 23.6637 19.0221 23.6549 19.0752C23.646 19.1283 23.6283 19.1814 23.6018 19.2345V19.7522C23.6018 20.3363 23.4911 20.885 23.2699 21.3982C23.0487 21.9115 22.7434 22.3628 22.354 22.7522C21.9646 23.1416 21.5133 23.4469 21 23.6681C20.4867 23.8894 19.9381 24 19.354 24H14.2566C13.5664 24 12.9292 23.8451 12.3451 23.5354C11.7611 23.2257 11.2743 22.8142 10.885 22.3009H4.24779C3.66372 22.3009 3.11504 22.1903 2.60177 21.969C2.0885 21.7478 1.63717 21.4469 1.24779 21.0664C0.858407 20.6858 0.553097 20.2345 0.331858 19.7124C0.110619 19.1903 0 18.6372 0 18.0531V17.2035H3.39823C3.39823 16.5044 3.53097 15.8451 3.79646 15.2257C4.06195 14.6062 4.4292 14.0664 4.89823 13.6062C5.36726 13.146 5.90708 12.7788 6.5177 12.5044C7.12832 12.2301 7.78761 12.0973 8.49557 12.1062C8.76106 12.1062 9.0177 12.1283 9.26549 12.1726C9.51327 12.2168 9.76106 12.2788 10.0088 12.3584V7.00885H23.6018V8.70796H24.4513ZM8.49557 13.8053C8.02655 13.8053 7.5885 13.8938 7.18142 14.0708C6.77434 14.2478 6.4115 14.4912 6.09292 14.8009C5.77434 15.1106 5.53097 15.469 5.36283 15.8761C5.19469 16.2832 5.10619 16.7257 5.09735 17.2035H10.0088V14.177C9.77876 14.0619 9.53982 13.9735 9.29204 13.9115C9.04425 13.8496 8.77876 13.8142 8.49557 13.8053ZM4.24779 20.6018H10.1018C10.0398 20.3451 10.0088 20.0619 10.0088 19.7522V18.9027H1.84513C1.93363 19.1504 2.05752 19.3761 2.21681 19.5796C2.37611 19.7832 2.55752 19.9646 2.76106 20.1239C2.9646 20.2832 3.19469 20.3982 3.45133 20.469C3.70796 20.5398 3.97345 20.5841 4.24779 20.6018ZM10.3938 21.4911V21.5044L10.4071 21.531V21.5177L10.3938 21.4911ZM21.9027 19.7522V8.70796H11.708V19.7522C11.708 20.1062 11.7743 20.4381 11.9071 20.7478C12.0398 21.0575 12.2212 21.3274 12.4513 21.5575C12.6814 21.7876 12.9513 21.969 13.2611 22.1018C13.5708 22.2345 13.9027 22.3009 14.2566 22.3009H19.354C19.708 22.3009 20.0398 22.2345 20.3496 22.1018C20.6593 21.969 20.9292 21.7876 21.1593 21.5575C21.3894 21.3274 21.5708 21.0575 21.7035 20.7478C21.8363 20.4381 21.9027 20.1062 21.9027 19.7522ZM25.3009 16.354V11.2566C25.3009 11.0265 25.2168 10.8274 25.0487 10.6593C24.8805 10.4912 24.6814 10.4071 24.4513 10.4071H23.6018V17.2035H24.4513C24.6814 17.2035 24.8805 17.1195 25.0487 16.9513C25.2168 16.7832 25.3009 16.5841 25.3009 16.354Z" fill="#324A50"/>
</svg>
