<svg width="22" height="17" viewBox="0 0 22 17" fill="none" xmlns="http://www.w3.org/2000/svg">
<path d="M21.2667 6.6H20.2767L17.7302 0.870833C17.6149 0.611625 17.427 0.391398 17.1891 0.236834C16.9513 0.0822705 16.6737 3.39551e-06 16.39 0H5.61C5.32633 3.39551e-06 5.04874 0.0822705 4.81088 0.236834C4.57301 0.391398 4.38508 0.611625 4.26983 0.870833L1.72333 6.6H0.733333C0.538841 6.6 0.352315 6.67726 0.214788 6.81479C0.0772617 6.95232 0 7.13884 0 7.33333C0 7.52783 0.0772617 7.71435 0.214788 7.85188C0.352315 7.98941 0.538841 8.06667 0.733333 8.06667H1.46667V15.4C1.46667 15.789 1.62119 16.162 1.89624 16.4371C2.1713 16.7121 2.54435 16.8667 2.93333 16.8667H5.13333C5.52232 16.8667 5.89537 16.7121 6.17042 16.4371C6.44548 16.162 6.6 15.789 6.6 15.4V13.9333H15.4V15.4C15.4 15.789 15.5545 16.162 15.8296 16.4371C16.1046 16.7121 16.4777 16.8667 16.8667 16.8667H19.0667C19.4557 16.8667 19.8287 16.7121 20.1038 16.4371C20.3788 16.162 20.5333 15.789 20.5333 15.4V8.06667H21.2667C21.4612 8.06667 21.6477 7.98941 21.7852 7.85188C21.9227 7.71435 22 7.52783 22 7.33333C22 7.13884 21.9227 6.95232 21.7852 6.81479C21.6477 6.67726 21.4612 6.6 21.2667 6.6ZM5.61 1.46667H16.39L18.6716 6.6H3.32842L5.61 1.46667ZM5.13333 15.4H2.93333V13.9333H5.13333V15.4ZM16.8667 15.4V13.9333H19.0667V15.4H16.8667ZM19.0667 12.4667H2.93333V8.06667H19.0667V12.4667ZM4.4 10.2667C4.4 10.0722 4.47726 9.88565 4.61479 9.74812C4.75232 9.61059 4.93884 9.53333 5.13333 9.53333H6.6C6.79449 9.53333 6.98102 9.61059 7.11855 9.74812C7.25607 9.88565 7.33333 10.0722 7.33333 10.2667C7.33333 10.4612 7.25607 10.6477 7.11855 10.7852C6.98102 10.9227 6.79449 11 6.6 11H5.13333C4.93884 11 4.75232 10.9227 4.61479 10.7852C4.47726 10.6477 4.4 10.4612 4.4 10.2667ZM14.6667 10.2667C14.6667 10.0722 14.7439 9.88565 14.8815 9.74812C15.019 9.61059 15.2055 9.53333 15.4 9.53333H16.8667C17.0612 9.53333 17.2477 9.61059 17.3852 9.74812C17.5227 9.88565 17.6 10.0722 17.6 10.2667C17.6 10.4612 17.5227 10.6477 17.3852 10.7852C17.2477 10.9227 17.0612 11 16.8667 11H15.4C15.2055 11 15.019 10.9227 14.8815 10.7852C14.7439 10.6477 14.6667 10.4612 14.6667 10.2667Z" fill="#324A50"/>
</svg>
