<svg width="23" height="23" viewBox="0 0 23 23" fill="none" xmlns="http://www.w3.org/2000/svg">
<path d="M20.0016 19.9894C20.3034 19.6876 20.3034 19.1984 20.0017 18.8965L4.12444 3.01114C3.82236 2.7089 3.33274 2.70788 3.0294 3.00885V3.00885C2.72443 3.31144 2.72346 3.80427 3.02724 4.10805L3.82978 4.91058C4.50762 5.58843 4.55364 6.65628 4.12786 7.51515C3.54764 8.68556 3.24126 9.98095 3.24245 11.3023C3.24245 16.0353 7.11489 19.9077 11.8479 19.9077C13.242 19.9077 14.5535 19.5732 15.7146 18.9813C16.5235 18.569 17.5342 18.615 18.1762 19.257L18.9086 19.9894C19.2104 20.2912 19.6998 20.2912 20.0016 19.9894V19.9894ZM11.8479 18.1866C8.05289 18.1866 4.96353 15.0973 4.96353 11.3023C4.96353 10.1922 5.23457 9.14512 5.71131 8.21537C5.9602 7.72999 6.60459 7.67924 6.98895 8.06629V8.06629C7.27907 8.35844 7.32074 8.80953 7.14969 9.18404C6.84707 9.84664 6.68743 10.5685 6.68462 11.3023C6.68462 12.233 6.93478 13.1041 7.36076 13.8513C7.49518 14.087 7.81477 14.1134 8.00667 13.9215V13.9215C8.15383 13.7744 8.17517 13.5451 8.07548 13.3624C7.73981 12.7473 7.54517 12.0373 7.54517 11.3023C7.54517 10.7451 7.65902 10.2153 7.8569 9.72604C7.96785 9.45172 8.32036 9.40398 8.5282 9.61462V9.61462C8.66099 9.74921 8.69145 9.95209 8.62415 10.1288C8.48549 10.4928 8.40571 10.8896 8.40571 11.3023C8.40571 11.7368 8.49386 12.1513 8.64554 12.5266C8.75258 12.7914 9.0908 12.8341 9.29557 12.635V12.635C9.43241 12.5019 9.46565 12.2976 9.40377 12.117C9.3153 11.8588 9.26625 11.5872 9.26625 11.3023V11.3023C9.26625 10.9177 9.72881 10.8096 10.0008 11.0816L12.0686 13.1494C12.3405 13.4213 12.2325 13.8839 11.8479 13.8839V13.8839C11.5655 13.8839 11.2963 13.8357 11.0433 13.7488C10.8616 13.6863 10.6555 13.7179 10.5206 13.8547V13.8547C10.3188 14.0592 10.3597 14.4 10.626 14.5079C11.0019 14.6601 11.4128 14.7444 11.8479 14.7444C12.2623 14.7444 12.6606 14.664 13.0302 14.5243C13.2066 14.4576 13.4087 14.4895 13.542 14.6228V14.6228C13.75 14.8308 13.7015 15.1807 13.4289 15.2913C12.9384 15.4904 12.4069 15.605 11.8479 15.605C11.1133 15.605 10.4038 15.4106 9.78902 15.0754C9.60555 14.9753 9.37537 14.9968 9.22761 15.1445V15.1445C9.03578 15.3363 9.06101 15.6556 9.29619 15.7909C10.044 16.2208 10.9161 16.4655 11.8479 16.4655C12.6053 16.4655 13.3189 16.2951 13.9667 15.9981C14.3407 15.8267 14.7907 15.8701 15.0826 16.16V16.16C15.4708 16.5455 15.421 17.1915 14.9342 17.441C14.0067 17.9164 12.9562 18.1866 11.8479 18.1866ZM11.8479 7.86009C12.2811 7.86009 12.6944 7.94772 13.0689 8.09858C13.3355 8.20602 13.3785 8.54644 13.1781 8.75254V8.75254C13.046 8.88827 12.844 8.923 12.6634 8.86609C12.5258 8.82272 12.3839 8.79026 12.2395 8.76871C12.115 8.75013 11.9969 8.69757 11.9079 8.60854L11.67 8.37064C11.4781 8.17874 11.5765 7.86009 11.8479 7.86009V7.86009ZM14.5416 11.2423C14.4526 11.1532 14.3999 11.0352 14.3823 10.9105C14.3624 10.7705 14.333 10.6333 14.2916 10.5011C14.2339 10.3168 14.2644 10.109 14.4019 9.97338V9.97338C14.6056 9.77244 14.945 9.81316 15.0526 10.0783C15.2054 10.4547 15.2901 10.8664 15.2901 11.3023V11.3023C15.2901 11.5737 14.9714 11.6721 14.7795 11.4802L14.5416 11.2423ZM14.4671 7.46105C14.32 7.60821 14.0907 7.62955 13.908 7.52986C13.2929 7.1942 12.583 6.99955 11.8479 6.99955C11.4775 6.99955 11.118 7.04876 10.7738 7.13846C10.6129 7.1804 10.4397 7.1413 10.3213 7.02449V7.02449C10.0991 6.80523 10.1676 6.43218 10.4666 6.34235C10.9058 6.21037 11.3689 6.139 11.8479 6.139C12.7786 6.139 13.6497 6.38916 14.3969 6.81515C14.6327 6.94956 14.659 7.26915 14.4671 7.46105V7.46105ZM9.17685 4.9676C8.80468 5.13054 8.36233 5.07475 8.07896 4.78361V4.78361C7.68172 4.37549 7.76576 3.70196 8.28466 3.46721C9.36946 2.97644 10.5762 2.69682 11.8479 2.69682C16.5809 2.69682 20.4533 6.56928 20.4533 11.3023C20.4533 12.5757 20.1729 13.7841 19.6809 14.8701C19.4466 15.3872 18.7757 15.472 18.3675 15.0774V15.0774C18.0758 14.7954 18.0184 14.3539 18.1806 13.982C18.5411 13.156 18.7322 12.2482 18.7322 11.3023C18.7322 7.50727 15.6429 4.41791 11.8479 4.41791C10.9036 4.41791 9.99738 4.60835 9.17685 4.9676ZM16.123 12.8286C16.0077 12.7103 15.9694 12.5382 16.0112 12.3783C16.1012 12.0335 16.1506 11.6734 16.1506 11.3023C16.1506 10.5677 15.9562 9.85822 15.621 9.2434C15.521 9.05994 15.5424 8.82975 15.6901 8.68199V8.68199C15.882 8.49017 16.2013 8.51539 16.3365 8.75058C16.7664 9.49834 17.0111 10.3705 17.0111 11.3023C17.0111 11.7856 16.9402 12.2452 16.8091 12.6839C16.719 12.9851 16.3423 13.0538 16.123 12.8286V12.8286Z" fill="#324A50"/>
<rect x="0.75" y="0.75" width="21.5" height="20.6786" rx="3.25" stroke="#324A50" stroke-width="1.5"/>
</svg>
