<svg width="24" height="23" viewBox="0 0 24 23" fill="none" xmlns="http://www.w3.org/2000/svg">
<path d="M24 11.2C24 11.4122 23.9157 11.6157 23.7657 11.7657C23.6157 11.9157 23.4122 12 23.2 12H21.533C21.3424 13.1178 20.7629 14.1323 19.8969 14.8642C19.0308 15.5962 17.9339 15.9984 16.8 16H12.8V18.4H15.2C16.0487 18.4 16.8626 18.7371 17.4627 19.3373C18.0629 19.9374 18.4 20.7513 18.4 21.6C18.4 21.8122 18.3157 22.0157 18.1657 22.1657C18.0157 22.3157 17.8122 22.4 17.6 22.4C17.3878 22.4 17.1843 22.3157 17.0343 22.1657C16.8843 22.0157 16.8 21.8122 16.8 21.6C16.8 21.1756 16.6314 20.7687 16.3314 20.4686C16.0313 20.1686 15.6243 20 15.2 20H12.8V21.6C12.8 21.8122 12.7157 22.0157 12.5657 22.1657C12.4157 22.3157 12.2122 22.4 12 22.4C11.7878 22.4 11.5843 22.3157 11.4343 22.1657C11.2843 22.0157 11.2 21.8122 11.2 21.6V20H8.8C8.37565 20 7.96869 20.1686 7.66863 20.4686C7.36857 20.7687 7.2 21.1756 7.2 21.6C7.2 21.8122 7.11571 22.0157 6.96569 22.1657C6.81566 22.3157 6.61217 22.4 6.4 22.4C6.18783 22.4 5.98434 22.3157 5.83431 22.1657C5.68429 22.0157 5.6 21.8122 5.6 21.6C5.6 20.7513 5.93714 19.9374 6.53726 19.3373C7.13737 18.7371 7.95131 18.4 8.8 18.4H11.2V16H7.2C6.06607 15.9984 4.96918 15.5962 4.10312 14.8642C3.23706 14.1323 2.65756 13.1178 2.467 12H0.8C0.587827 12 0.384344 11.9157 0.234315 11.7657C0.0842854 11.6157 0 11.4122 0 11.2C0 10.9878 0.0842854 10.7843 0.234315 10.6343C0.384344 10.4843 0.587827 10.4 0.8 10.4H3.2C3.41217 10.4 3.61566 10.4843 3.76569 10.6343C3.91571 10.7843 4 10.9878 4 11.2C4 12.0487 4.33714 12.8626 4.93726 13.4627C5.53737 14.0629 6.35131 14.4 7.2 14.4H16.8C17.6487 14.4 18.4626 14.0629 19.0627 13.4627C19.6629 12.8626 20 12.0487 20 11.2C20 10.9878 20.0843 10.7843 20.2343 10.6343C20.3843 10.4843 20.5878 10.4 20.8 10.4H23.2C23.4122 10.4 23.6157 10.4843 23.7657 10.6343C23.9157 10.7843 24 10.9878 24 11.2ZM5.991 12.248C5.84092 12.0749 5.72977 11.8715 5.66508 11.6517C5.60038 11.4319 5.58364 11.2008 5.616 10.974L6.988 1.374C7.04398 0.993354 7.2346 0.645397 7.52523 0.393293C7.81587 0.141188 8.18726 0.00164734 8.572 0H15.428C15.8127 0.00164734 16.1841 0.141188 16.4748 0.393293C16.7654 0.645397 16.956 0.993354 17.012 1.374L18.384 10.974C18.4164 11.2009 18.3996 11.4321 18.3349 11.652C18.2701 11.8719 18.1589 12.0753 18.0087 12.2484C17.8585 12.4216 17.6728 12.5604 17.4643 12.6556C17.2558 12.7508 17.0292 12.8 16.8 12.8H7.2C6.97069 12.8 6.74407 12.7507 6.53547 12.6555C6.32688 12.5602 6.1412 12.4213 5.991 12.248ZM7.2 11.2H16.8L15.428 1.6H8.571L7.2 11.2Z" fill="#324A50"/>
</svg>
