<svg width="56" height="56" viewBox="0 0 56 56" fill="none" xmlns="http://www.w3.org/2000/svg">
<circle cx="28" cy="28" r="28" fill="#252525"/>
<path fill-rule="evenodd" clip-rule="evenodd" d="M28.5014 29.9749C30.2518 29.9749 31.9305 29.2795 33.1683 28.0418C34.406 26.8041 35.1014 25.1253 35.1014 23.3749C35.1014 21.6245 34.406 19.9457 33.1683 18.708C31.9305 17.4703 30.2518 16.7749 28.5014 16.7749C26.7509 16.7749 25.0722 17.4703 23.8345 18.708C22.5967 19.9457 21.9014 21.6245 21.9014 23.3749C21.9014 25.1253 22.5967 26.8041 23.8345 28.0418C25.0722 29.2795 26.7509 29.9749 28.5014 29.9749ZM28.5014 28.3249C29.1514 28.3249 29.7951 28.1969 30.3957 27.9481C30.9962 27.6993 31.5419 27.3347 32.0015 26.8751C32.4612 26.4154 32.8258 25.8697 33.0746 25.2692C33.3233 24.6686 33.4514 24.0249 33.4514 23.3749C33.4514 22.7249 33.3233 22.0812 33.0746 21.4806C32.8258 20.8801 32.4612 20.3344 32.0015 19.8747C31.5419 19.4151 30.9962 19.0505 30.3957 18.8017C29.7951 18.5529 29.1514 18.4249 28.5014 18.4249C27.1885 18.4249 25.9295 18.9464 25.0012 19.8747C24.0729 20.803 23.5514 22.0621 23.5514 23.3749C23.5514 24.6877 24.0729 25.9468 25.0012 26.8751C25.9295 27.8034 27.1885 28.3249 28.5014 28.3249Z" fill="#D9D9D9"/>
<path fill-rule="evenodd" clip-rule="evenodd" d="M45 27.5C45 36.6129 37.6129 44 28.5 44C19.3871 44 12 36.6129 12 27.5C12 18.3871 19.3871 11 28.5 11C37.6129 11 45 18.3871 45 27.5ZM36.4447 40.0482C34.0695 41.556 31.3133 42.3545 28.5 42.35C25.6192 42.3546 22.7999 41.5173 20.3886 39.941C20.1906 39.6935 19.9901 39.4378 19.7863 39.1737C19.5508 38.8643 19.4238 38.486 19.425 38.0971C19.425 37.2086 20.0635 36.4636 20.9174 36.3391C26.5645 35.514 30.4528 35.585 36.1073 36.3679C36.5168 36.4273 36.891 36.6328 37.1608 36.9466C37.4306 37.2603 37.5777 37.6611 37.575 38.0749C37.575 38.4708 37.4389 38.8553 37.193 39.1556C36.9397 39.4641 36.6898 39.762 36.4447 40.0482ZM39.2126 37.7844C39.0806 36.24 37.9083 34.9514 36.3334 34.7336C30.5452 33.9325 26.4994 33.8558 20.679 34.7064C19.095 34.9374 17.9276 36.2376 17.789 37.7861C15.1287 35.0232 13.6448 31.3355 13.65 27.5C13.65 19.2987 20.2987 12.65 28.5 12.65C36.7013 12.65 43.35 19.2987 43.35 27.5C43.3553 31.3347 41.872 35.0217 39.2126 37.7844Z" fill="#D9D9D9"/>
</svg>
