<svg width="24" height="24" viewBox="0 0 24 24" fill="none" xmlns="http://www.w3.org/2000/svg">
<path d="M10.0039 21H3.00391C2.73869 21 2.48434 20.8946 2.2968 20.7071C2.10926 20.5196 2.00391 20.2652 2.00391 20V4C2.00391 3.73478 2.10926 3.48043 2.2968 3.29289C2.48434 3.10536 2.73869 3 3.00391 3H10.0039C10.0039 3.53043 10.2146 4.03914 10.5897 4.41421C10.9648 4.78929 11.4735 5 12.0039 5C12.5343 5 13.043 4.78929 13.4181 4.41421C13.7932 4.03914 14.0039 3.53043 14.0039 3H21.0039C21.2691 3 21.5235 3.10536 21.711 3.29289C21.8986 3.48043 22.0039 3.73478 22.0039 4V20C22.0039 20.2652 21.8986 20.5196 21.711 20.7071C21.5235 20.8946 21.2691 21 21.0039 21H14.0039C14.0039 20.4696 13.7932 19.9609 13.4181 19.5858C13.043 19.2107 12.5343 19 12.0039 19C11.4735 19 10.9648 19.2107 10.5897 19.5858C10.2146 19.9609 10.0039 20.4696 10.0039 21ZM8.53891 19C8.8899 18.3917 9.39496 17.8865 10.0032 17.5354C10.6115 17.1843 11.3016 16.9996 12.0039 17C13.4839 17 14.7769 17.804 15.4689 19H20.0039V5H15.4689C15.1178 5.60828 14.6128 6.11337 14.0045 6.46446C13.3962 6.81555 12.7062 7.00026 12.0039 7C11.3016 7.00036 10.6115 6.8157 10.0032 6.46459C9.39496 6.11349 8.8899 5.60835 8.53891 5H4.00391V19H8.53891ZM6.00391 8H8.00391V16H6.00391V8ZM16.0039 8H18.0039V16H16.0039V8Z" fill="#324A50"/>
</svg>
