<svg width="32" height="23" viewBox="0 0 32 23" fill="none" xmlns="http://www.w3.org/2000/svg">
<path d="M30.2222 0H1.77778C1.30628 0 0.854097 0.187301 0.520699 0.520699C0.187301 0.854097 0 1.30628 0 1.77778V20.7407C0 21.2122 0.187301 21.6644 0.520699 21.9978C0.854097 22.3312 1.30628 22.5185 1.77778 22.5185H30.2222C30.6937 22.5185 31.1459 22.3312 31.4793 21.9978C31.8127 21.6644 32 21.2122 32 20.7407V1.77778C32 1.30628 31.8127 0.854097 31.4793 0.520699C31.1459 0.187301 30.6937 0 30.2222 0ZM1.77778 1.18519H30.2222C30.3794 1.18519 30.5301 1.24762 30.6412 1.35875C30.7524 1.46988 30.8148 1.62061 30.8148 1.77778V5.92593H1.18519V1.77778C1.18519 1.62061 1.24762 1.46988 1.35875 1.35875C1.46988 1.24762 1.62061 1.18519 1.77778 1.18519ZM30.2222 21.3333H1.77778C1.62061 21.3333 1.46988 21.2709 1.35875 21.1598C1.24762 21.0486 1.18519 20.8979 1.18519 20.7407V7.11111H30.8148V20.7407C30.8148 20.8979 30.7524 21.0486 30.6412 21.1598C30.5301 21.2709 30.3794 21.3333 30.2222 21.3333ZM27.2593 17.1852C27.2593 17.3424 27.1968 17.4931 27.0857 17.6042C26.9746 17.7153 26.8238 17.7778 26.6667 17.7778H21.9259C21.7688 17.7778 21.618 17.7153 21.5069 17.6042C21.3958 17.4931 21.3333 17.3424 21.3333 17.1852C21.3333 17.028 21.3958 16.8773 21.5069 16.7662C21.618 16.655 21.7688 16.5926 21.9259 16.5926H26.6667C26.8238 16.5926 26.9746 16.655 27.0857 16.7662C27.1968 16.8773 27.2593 17.028 27.2593 17.1852ZM17.7778 17.1852C17.7778 17.3424 17.7153 17.4931 17.6042 17.6042C17.4931 17.7153 17.3424 17.7778 17.1852 17.7778H14.8148C14.6576 17.7778 14.5069 17.7153 14.3958 17.6042C14.2847 17.4931 14.2222 17.3424 14.2222 17.1852C14.2222 17.028 14.2847 16.8773 14.3958 16.7662C14.5069 16.655 14.6576 16.5926 14.8148 16.5926H17.1852C17.3424 16.5926 17.4931 16.655 17.6042 16.7662C17.7153 16.8773 17.7778 17.028 17.7778 17.1852Z" fill="#324A50"/>
</svg>
