<svg width="16" height="16" viewBox="0 0 16 16" fill="none" xmlns="http://www.w3.org/2000/svg">
<path d="M15.6629 14.0473C15.8775 14.2619 15.9981 14.553 15.9981 14.8565C15.9981 15.1601 15.8775 15.4511 15.6629 15.6658C15.4483 15.8804 15.1572 16.001 14.8537 16.001C14.5502 16.001 14.2591 15.8804 14.0444 15.6658L8 9.61941L1.95365 15.6639C1.73903 15.8785 1.44794 15.9991 1.14442 15.9991C0.840901 15.9991 0.549813 15.8785 0.335193 15.6639C0.120573 15.4492 3.19809e-09 15.1582 0 14.8546C-3.19809e-09 14.5511 0.120573 14.26 0.335193 14.0454L6.38155 8.00096L0.337097 1.9546C0.122476 1.73998 0.0019041 1.44889 0.00190411 1.14537C0.00190411 0.841853 0.122476 0.550765 0.337097 0.336145C0.551717 0.121525 0.842805 0.000951876 1.14632 0.000951872C1.44984 0.000951869 1.74093 0.121525 1.95555 0.336145L8 6.3825L14.0464 0.335193C14.261 0.120572 14.5521 -5.05663e-09 14.8556 0C15.1591 5.05663e-09 15.4502 0.120572 15.6648 0.335193C15.8794 0.549813 16 0.840901 16 1.14442C16 1.44794 15.8794 1.73903 15.6648 1.95365L9.61845 8.00096L15.6629 14.0473Z" fill="#324A50"/>
</svg>
