<svg width="26" height="25" viewBox="0 0 26 25" fill="none" xmlns="http://www.w3.org/2000/svg">
<path d="M25.0714 22.2857H22.2857V1.85714C22.2857 1.3646 22.09 0.892226 21.7418 0.543944C21.3935 0.195663 20.9211 0 20.4286 0H5.57143C5.07888 0 4.60651 0.195663 4.25823 0.543944C3.90995 0.892226 3.71429 1.3646 3.71429 1.85714V22.2857H0.928571C0.682299 22.2857 0.446113 22.3835 0.271972 22.5577C0.0978313 22.7318 0 22.968 0 23.2143C0 23.4606 0.0978313 23.6967 0.271972 23.8709C0.446113 24.045 0.682299 24.1429 0.928571 24.1429H25.0714C25.3177 24.1429 25.5539 24.045 25.728 23.8709C25.9022 23.6967 26 23.4606 26 23.2143C26 22.968 25.9022 22.7318 25.728 22.5577C25.5539 22.3835 25.3177 22.2857 25.0714 22.2857ZM20.4286 1.85714V22.2857H18.5714V1.85714H20.4286ZM5.57143 1.85714H16.7143V22.2857H5.57143V1.85714ZM14.8571 12.5357C14.8571 12.8112 14.7755 13.0805 14.6224 13.3095C14.4694 13.5386 14.2518 13.7171 13.9973 13.8225C13.7428 13.928 13.4627 13.9556 13.1926 13.9018C12.9224 13.8481 12.6742 13.7154 12.4794 13.5206C12.2846 13.3258 12.1519 13.0776 12.0982 12.8074C12.0444 12.5373 12.072 12.2572 12.1775 12.0027C12.2829 11.7482 12.4614 11.5306 12.6905 11.3776C12.9195 11.2245 13.1888 11.1429 13.4643 11.1429C13.8337 11.1429 14.188 11.2896 14.4492 11.5508C14.7104 11.812 14.8571 12.1663 14.8571 12.5357Z" fill="#324A50"/>
</svg>
