<svg width="11" height="6" viewBox="0 0 11 6" fill="none" xmlns="http://www.w3.org/2000/svg">
<path opacity="0.72" d="M5.66667 4.31638L9.44619 1.08305C9.47665 1.05643 9.51281 1.03538 9.55258 1.02113C9.59235 1.00687 9.63494 0.999696 9.67789 1.00001C9.72083 1.00032 9.76328 1.00812 9.80278 1.02295C9.84227 1.03779 9.87803 1.05936 9.90798 1.08642C9.93793 1.11348 9.96148 1.1455 9.97727 1.18061C9.99305 1.21573 10.0008 1.25325 9.99994 1.291C9.99912 1.32875 9.9898 1.36599 9.9725 1.40055C9.95521 1.43511 9.93029 1.46631 9.89919 1.49235L5.89317 4.91911C5.83253 4.97098 5.75127 5 5.66667 5C5.58207 5 5.5008 4.97098 5.44016 4.91911L1.43414 1.49235C1.40304 1.46631 1.37812 1.43511 1.36083 1.40055C1.34354 1.36599 1.33421 1.32875 1.33339 1.291C1.33258 1.25325 1.34028 1.21573 1.35607 1.18061C1.37185 1.1455 1.3954 1.11348 1.42535 1.08642C1.4553 1.05936 1.49106 1.03779 1.53056 1.02295C1.57005 1.00812 1.6125 1.00032 1.65545 1.00001C1.69839 0.999696 1.74099 1.00687 1.78076 1.02113C1.82053 1.03538 1.85669 1.05643 1.88715 1.08305L5.66667 4.31638Z" fill="#324A50" stroke="#324A50"/>
</svg>
