<svg width="44" height="30" viewBox="0 0 44 30" fill="none" xmlns="http://www.w3.org/2000/svg">
<path d="M41.3284 27.2422V21.8114H42.1475L42.9087 21.0588L33.8899 12.04H32.7702V13.6031H30.1466L28.5836 12.04H24.2528L15.2438 21.049L16.005 21.8102H17.2109V27.2409H14.8571C11.3367 23.8734 10.4006 16.2353 10.7295 10.5533L10.7874 10.4375H10.8157C12.3554 10.4375 13.7202 11.184 14.5701 12.3344L14.5787 12.3467C15.2192 13.2126 15.6047 14.3027 15.6047 15.4815C15.6047 16.2945 15.4224 17.0643 15.0948 17.7528L15.1083 17.7208C15.7957 17.5448 16.4348 17.2164 16.9781 16.7601L16.9707 16.7662C17.5364 16.2738 17.9899 15.6656 18.3003 14.9829C18.6108 14.3001 18.771 13.5587 18.7703 12.8086C18.7703 11.6323 18.3835 10.5472 17.7307 9.67263L17.7406 9.68618C17.1804 8.90506 16.3883 8.32045 15.4767 8.0155C14.5652 7.71055 13.5807 7.70079 12.6633 7.98761L12.6954 7.97898C13.0218 7.77575 13.3974 7.59591 13.7928 7.45919L13.8322 7.44687C14.3696 7.24838 14.9382 7.14784 15.5111 7.15002C16.8451 7.15002 18.0534 7.68337 18.9366 8.54682L18.9353 8.54558C19.0662 7.85472 19.0269 7.14237 18.8208 6.4701L18.8294 6.5009C18.6252 5.9018 18.3011 5.35055 17.877 4.88073C17.4528 4.4109 16.9375 4.03234 16.3623 3.7681C15.7872 3.50385 15.1642 3.35946 14.5315 3.34372C13.8987 3.32797 13.2694 3.44121 12.6818 3.67652L12.7126 3.66543C12.4154 3.76788 12.1263 3.89264 11.8479 4.03865L11.8836 4.0214C11.7998 3.63619 11.6755 3.26089 11.5129 2.90175L11.5277 2.93747C10.4437 0.507252 7.95808 -0.640729 5.97129 0.363138C5.43474 0.637436 4.97372 1.03924 4.62869 1.53329L4.6213 1.54561C5.32056 1.61422 5.99414 1.84516 6.58841 2.22002C7.18267 2.59489 7.68121 3.10332 8.04431 3.70485L8.05539 3.72456C7.59448 3.49381 7.10666 3.32128 6.60317 3.21092L6.56129 3.20353C3.50658 2.54701 0.599675 4.20617 0.0786499 6.91722C-0.0605653 7.66093 -0.014454 8.42748 0.212909 9.14914L0.204287 9.11711C0.887356 8.34164 1.77141 7.76998 2.75887 7.46525C3.74633 7.16051 4.79879 7.13454 5.80008 7.39021L5.76066 7.38159C6.26444 7.48752 6.71033 7.64026 7.12789 7.84103L7.09217 7.82502C6.09284 7.69189 5.07651 7.85987 4.17316 8.30749C3.26982 8.7551 2.52052 9.46199 2.0211 10.3378L2.00755 10.3624C1.48612 11.2408 1.21242 12.2441 1.21554 13.2656C1.21554 15.197 2.17261 16.9042 3.63961 17.9388L3.65808 17.9511C4.28933 18.375 5.00955 18.6481 5.76312 18.7493L5.78899 18.7518C5.24555 17.8513 4.95967 16.819 4.96249 15.7673C4.96249 14.692 5.25442 13.6844 5.76436 12.821L5.74958 12.848C6.12841 12.1886 6.64784 11.6207 7.27095 11.1848C7.89407 10.7488 8.60556 10.4554 9.35488 10.3254L9.38567 10.3205C7.6403 18.2689 7.15745 23.8068 8.59736 27.2397H4.40205V29.5554H44V27.2397H41.3284V27.2422ZM31.536 21.9371H40.3627V27.2422H31.536V21.9371ZM18.1581 20.8852L24.2552 14.788L30.3523 20.8852V27.2422H23.6578V22.4581H20.2718V27.2422H18.1507V20.8852H18.1581Z" fill="#324A50"/>
</svg>
