<svg width="25" height="25" viewBox="0 0 25 25" fill="none" xmlns="http://www.w3.org/2000/svg">
<path d="M14.8438 18.75V17.5782C14.8438 16.1621 16.3838 14.8228 17.3828 13.8672C18.791 12.521 19.5313 10.7124 19.5313 8.59378C19.5313 4.68753 16.4195 1.56253 12.5 1.56253C11.5759 1.55995 10.6605 1.74006 9.80624 2.0925C8.952 2.44494 8.17586 2.96276 7.52244 3.61618C6.86901 4.26961 6.35119 5.04575 5.99875 5.89999C5.64631 6.75422 5.4662 7.6697 5.46878 8.59378C5.46878 10.6367 6.24075 12.5679 7.61721 13.8672C8.61087 14.8052 10.1563 16.1475 10.1563 17.5782V18.75M10.9375 23.4375H14.0625M10.1563 21.0938H14.8438M12.5 18.75V12.5" stroke="#324A50" stroke-width="1.5" stroke-linecap="round" stroke-linejoin="round"/>
<path d="M14.3555 11.7188C14.3555 11.7188 13.3052 12.5 12.5 12.5C11.6948 12.5 10.6445 11.7188 10.6445 11.7188" stroke="#324A50" stroke-width="2" stroke-linecap="round" stroke-linejoin="round"/>
</svg>
