<svg width="16" height="19" viewBox="0 0 16 19" fill="none" xmlns="http://www.w3.org/2000/svg">
<path fill-rule="evenodd" clip-rule="evenodd" d="M11.3742 1.31027L11.2948 1.39621C10.9315 1.79324 10.7074 2.0195 10.5225 2.16635C10.3466 1.93684 10.1722 1.70623 9.99928 1.47453C9.68491 1.0677 9.42385 0.772912 9.15625 0.547744C8.82992 0.27145 8.50577 0.112635 8.15659 0.112635C7.97276 0.112635 7.79436 0.158321 7.6225 0.242079C7.20153 0.446581 6.84909 0.830564 6.377 1.49084C6.31717 1.57351 6.16815 1.78672 6.07895 1.91507L6.01042 2.01297L5.89512 2.17287L5.87771 2.15982C5.683 2.0108 5.44913 1.78345 5.06297 1.37989L4.98791 1.30157C4.40813 0.692417 4.2504 0.532515 4.00783 0.33454C3.80986 0.17355 3.63908 0.0702116 3.45307 0.0245252C3.28334 -0.0220652 3.10221 -0.00178533 2.94699 0.0811868C2.79178 0.164159 2.67429 0.303503 2.61875 0.470512C2.32241 1.29274 2.17185 2.16039 2.17385 3.03439C2.17385 7.04392 4.3668 9.79163 8.15659 9.79163C11.9464 9.79163 14.1393 7.04392 14.1393 3.03439C14.1413 2.1603 13.9904 1.29259 13.6934 0.470512C13.6383 0.30347 13.521 0.164056 13.3658 0.0812121C13.2107 -0.00163229 13.0296 -0.0215432 12.8601 0.0256129C12.6752 0.0723871 12.5077 0.177901 12.3162 0.341067C12.0813 0.540129 11.9355 0.694593 11.3742 1.30918V1.31027ZM3.26162 3.03439C3.26162 2.44699 3.33885 1.87156 3.48896 1.32441C3.63364 1.4593 3.82073 1.65292 4.20037 2.05213L4.27651 2.13154C4.70183 2.57644 4.96181 2.82771 5.21526 3.02351C5.71019 3.40206 6.16597 3.53585 6.54669 3.10074C6.64894 2.98435 6.75337 2.84512 6.89804 2.64062C6.90783 2.62865 6.9372 2.58623 6.97636 2.52966L7.26136 2.12392C7.62794 1.61267 7.8977 1.31789 8.09677 1.22107C8.11511 1.2098 8.1354 1.20205 8.15659 1.19823C8.19902 1.19823 8.30562 1.25262 8.45464 1.37771C8.65044 1.54088 8.868 1.7878 9.13776 2.13915C9.10295 2.09347 9.7306 2.93323 9.87745 3.09966C10.2582 3.53694 10.715 3.39988 11.1958 3.01916C11.4417 2.82445 11.6929 2.571 12.0976 2.12936L12.1781 2.04234C12.5186 1.66815 12.697 1.4767 12.8307 1.34399C12.9782 1.89496 13.0525 2.46295 13.0516 3.0333C13.0516 6.49024 11.285 8.70386 8.15659 8.70386C5.02816 8.70386 3.26162 6.49024 3.26162 3.03439Z" fill="black"/>
<path d="M7.61328 10.3386C7.61328 10.1943 7.67058 10.056 7.77258 9.95398C7.87458 9.85198 8.01292 9.79468 8.15717 9.79468C8.30141 9.79468 8.43975 9.85198 8.54175 9.95398C8.64375 10.056 8.70105 10.1943 8.70105 10.3386V17.4091C8.70105 17.5533 8.64375 17.6917 8.54175 17.7937C8.43975 17.8957 8.30141 17.953 8.15717 17.953C8.01292 17.953 7.87458 17.8957 7.77258 17.7937C7.67058 17.6917 7.61328 17.5533 7.61328 17.4091V10.3386Z" fill="black"/>
<path fill-rule="evenodd" clip-rule="evenodd" d="M10.4334 12.9463C8.28507 14.7488 6.85792 17.0646 7.84779 18.2449C8.85833 19.449 12.0455 18.693 13.9284 17.1136C15.7613 15.5755 16.5739 13.413 15.5547 12.199C14.5354 10.984 12.2652 11.4082 10.4334 12.9463ZM13.229 16.2793C11.7475 17.5237 9.17378 18.1328 8.68211 17.5454C8.28616 17.0744 9.44355 15.1959 11.1318 13.7796C12.5655 12.5765 14.196 12.2719 14.7214 12.8985C15.2468 13.524 14.6627 15.0762 13.229 16.2793Z" fill="black"/>
<path fill-rule="evenodd" clip-rule="evenodd" d="M5.56503 12.9468C7.71338 14.7493 9.14163 17.0651 8.15067 18.2454C7.14122 19.4495 3.95296 18.6935 2.07002 17.1141C0.237129 15.576 -0.574348 13.4135 0.444894 12.1995C1.46414 10.9845 3.73214 11.4087 5.56503 12.9468ZM2.76946 16.2798C4.25209 17.5242 6.82467 18.1333 7.31743 17.5459C7.71338 17.0749 6.55599 15.1963 4.86669 13.7801C3.433 12.577 1.80352 12.2724 1.27704 12.899C0.752733 13.5244 1.33578 15.0767 2.76946 16.2798Z" fill="black"/>
</svg>
