<svg width="23" height="27" viewBox="0 0 23 27" fill="none" xmlns="http://www.w3.org/2000/svg">
<path d="M23 19.8143C23 20.0396 22.9177 20.2347 22.753 20.3993C22.5883 20.564 22.3933 20.6464 22.1679 20.6464C22.0379 20.6464 21.9035 20.603 21.7649 20.5164C21.6262 20.4297 21.4918 20.33 21.3618 20.2173C21.2318 20.1046 21.1104 19.979 20.9978 19.8403C20.8851 19.7016 20.7854 19.5932 20.6987 19.5152C19.78 20.33 18.7745 20.9844 17.6824 21.4785C16.5903 21.9725 15.4331 22.3062 14.211 22.4796V24.3388H16.6423V26.003H9.9855V24.3388H12.5468V22.5966C11.3853 22.5966 10.2715 22.4492 9.20541 22.1545C8.13929 21.8598 7.14251 21.4438 6.21507 20.9064C5.28763 20.369 4.4382 19.7233 3.66677 18.9692C2.89535 18.2151 2.24528 17.3743 1.71655 16.4469C1.18782 15.5194 0.76744 14.5227 0.455404 13.4565C0.143368 12.3904 -0.00831627 11.2766 0.000351392 10.1152C0.000351392 8.58098 0.264715 7.12048 0.793443 5.73366C1.32217 4.34683 2.08492 3.06835 3.08171 1.89822C3.0037 1.82888 2.92569 1.7552 2.84768 1.67719C2.76967 1.59918 2.69166 1.51684 2.61365 1.43016C2.53564 1.34349 2.47497 1.25248 2.43163 1.15713C2.38829 1.06179 2.36229 0.953443 2.35362 0.832095C2.35362 0.606736 2.43597 0.411714 2.60065 0.247028C2.76534 0.0823428 2.96036 0 3.18572 0C3.41975 0 3.6191 0.0823428 3.78379 0.247028L6.67012 3.12036C7.49355 2.44428 8.39932 1.92855 9.38743 1.57318C10.3755 1.21781 11.407 1.04012 12.4818 1.04012C13.3226 1.04012 14.133 1.14847 14.9131 1.36516C15.6932 1.58185 16.4212 1.88955 17.0973 2.28826C17.7734 2.68697 18.3931 3.1637 18.9565 3.71843C19.5199 4.27316 19.9967 4.88856 20.3867 5.56464C20.7767 6.24072 21.0844 6.97313 21.3098 7.76189C21.5352 8.55065 21.6435 9.36107 21.6348 10.1932C21.6348 11.2593 21.4572 12.2864 21.1018 13.2745C20.7464 14.2626 20.2307 15.1727 19.5546 16.0048L22.753 19.2162C22.9177 19.3809 23 19.5802 23 19.8143ZM4.99293 10.1932C4.99293 10.8952 5.0926 11.593 5.29196 12.2864L6.96915 10.5962C6.64845 10.1195 6.36242 9.62977 6.11106 9.12705C5.85969 8.62432 5.64734 8.0956 5.47398 7.54086C5.15328 8.40763 4.99293 9.29173 4.99293 10.1932ZM8.16529 4.58953C7.72324 4.58953 7.3982 4.69354 7.19018 4.90156C6.98216 5.10959 6.87814 5.43896 6.87814 5.88968C6.87814 6.17571 6.91715 6.47474 6.99516 6.78678C7.07317 7.09881 7.17284 7.40652 7.29419 7.70988C7.41554 8.01325 7.55422 8.31229 7.71024 8.60699C7.86626 8.90169 8.02228 9.16605 8.17829 9.40008L11.6887 5.88968C11.446 5.73366 11.1816 5.57764 10.8956 5.42162C10.6096 5.2656 10.3105 5.12692 9.9985 5.00557C9.68647 4.88423 9.37877 4.78455 9.0754 4.70654C8.77203 4.62853 8.46866 4.58953 8.16529 4.58953ZM16.7853 10.9863L13.2749 14.4967C13.5176 14.6527 13.7819 14.8044 14.068 14.9517C14.354 15.0991 14.6487 15.2377 14.9521 15.3678C15.2554 15.4978 15.5675 15.6018 15.8882 15.6798C16.2089 15.7578 16.5079 15.7968 16.7853 15.7968C17.236 15.7968 17.5654 15.6928 17.7734 15.4848C17.9814 15.2768 18.0854 14.9474 18.0854 14.4967C18.0854 14.2106 18.0464 13.9116 17.9684 13.5996C17.8904 13.2875 17.7907 12.9798 17.6694 12.6765C17.548 12.3731 17.4094 12.0741 17.2533 11.7794C17.0973 11.4847 16.9413 11.2203 16.7853 10.9863ZM11.8967 13.5216L15.8102 9.6081C14.9867 8.60265 14.0723 7.68822 13.0669 6.86479L9.15341 10.7782C9.97683 11.7837 10.8913 12.6981 11.8967 13.5216ZM7.97027 11.9484L5.99404 13.9376C6.32341 14.5097 6.71779 15.0254 7.17718 15.4848C7.63656 15.9442 8.15662 16.3429 8.73736 16.6809L10.7266 14.7047C9.71247 13.8813 8.7937 12.9625 7.97027 11.9484ZM12.0787 15.7058L10.3885 17.383C11.082 17.5823 11.7797 17.682 12.4818 17.682C13.3832 17.682 14.2673 17.5217 15.1341 17.201C14.588 17.0276 14.0636 16.8153 13.5609 16.5639C13.0582 16.3125 12.5641 16.0265 12.0787 15.7058ZM19.4896 12.8455C19.8103 11.9787 19.9707 11.0946 19.9707 10.1932C19.9707 9.49109 19.871 8.79334 19.6716 8.09993L17.9944 9.79012C18.3151 10.2668 18.6012 10.7566 18.8525 11.2593C19.1039 11.762 19.3162 12.2907 19.4896 12.8455ZM18.9695 6.44874C18.6402 5.87667 18.2458 5.36095 17.7864 4.90156C17.327 4.44218 16.807 4.04346 16.2262 3.70543L14.237 5.68165C15.2511 6.50508 16.1699 7.42385 16.9933 8.43797L18.9695 6.44874ZM14.575 3.00334C13.8816 2.80399 13.1839 2.70431 12.4818 2.70431C11.5804 2.70431 10.6962 2.86466 9.82948 3.18537C10.3755 3.35872 10.8999 3.57108 11.4027 3.82244C11.9054 4.0738 12.3994 4.35983 12.8848 4.68054L14.575 3.00334ZM12.4818 20.9324C13.7733 20.9324 15.0214 20.7114 16.2262 20.2693C17.431 19.8273 18.5275 19.1815 19.5156 18.3321L18.3845 17.201C17.5437 17.8944 16.6249 18.4231 15.6282 18.7872C14.6314 19.1512 13.5826 19.3376 12.4818 19.3462C11.641 19.3462 10.8306 19.2379 10.0505 19.0212C9.27042 18.8045 8.54234 18.4968 7.86626 18.0981C7.19018 17.6994 6.57044 17.2226 6.00704 16.6679C5.44365 16.1132 4.96692 15.4978 4.57688 14.8217C4.18683 14.1456 3.87913 13.4132 3.65377 12.6244C3.42841 11.8357 3.32007 11.0253 3.32873 10.1932C3.32873 9.09238 3.51076 8.04359 3.8748 7.04681C4.23884 6.05003 4.7719 5.13126 5.47398 4.29049L4.26484 3.08135C3.42408 4.06947 2.78267 5.16593 2.34062 6.37073C1.89857 7.57554 1.67321 8.82801 1.66454 10.1282C1.66454 11.1249 1.79022 12.0827 2.04159 13.0015C2.29295 13.9203 2.65699 14.7784 3.13371 15.5758C3.61043 16.3732 4.17383 17.1013 4.82391 17.76C5.47398 18.4188 6.20207 18.9822 7.00816 19.4502C7.81425 19.9183 8.67668 20.2823 9.59546 20.5424C10.5142 20.8024 11.4763 20.9324 12.4818 20.9324Z" fill="#324A50"/>
</svg>
