<svg width="27" height="27" viewBox="0 0 27 27" fill="none" xmlns="http://www.w3.org/2000/svg">
<path fill-rule="evenodd" clip-rule="evenodd" d="M8.74282 17.1862C8.51556 17.1997 8.38806 17.2327 8.34006 17.2537C7.86455 17.4712 6.30378 18.0375 5.25002 18.4147V23.7398C5.79003 23.715 6.39753 23.694 6.73879 23.7075C8.25531 23.7683 9.40057 24.1215 10.4708 24.4613L10.5653 24.4913C11.5989 24.8198 12.5634 25.1265 13.8316 25.2225C14.2209 25.2525 14.5606 25.2863 14.8786 25.3186C15.2565 25.3604 15.6354 25.3927 16.0149 25.4153C16.6599 25.4483 17.1549 25.413 17.5554 25.266C18.0504 25.0845 19.8355 24.2498 21.628 23.34C22.4555 22.9235 23.2738 22.4886 24.082 22.0358C24.3782 21.8701 24.6695 21.696 24.9558 21.5137C25.201 21.354 25.3195 21.2587 25.3518 21.2257C25.4853 21.0885 25.5805 20.7097 25.4058 20.3685C25.2843 20.1307 24.9453 19.7827 23.9928 19.9402C22.8903 20.1225 21.5792 20.6602 20.2915 21.1882C19.6667 21.4447 19.045 21.699 18.4952 21.8828C17.9672 22.059 17.4002 22.2083 16.9142 22.179C16.2092 22.1363 14.9671 21.9503 13.9366 21.7823C13.3454 21.6858 12.7548 21.5848 12.1651 21.4792L12.0504 21.459L12.0106 21.4515L12.1539 19.9635L16.1739 20.0122C16.1777 20.0122 16.1829 20.0122 16.1904 20.0107C16.2174 20.0085 16.2714 20.0017 16.3494 19.9815C16.5024 19.9417 16.7544 19.8487 17.0664 19.6252C17.1744 19.548 17.3064 19.4137 17.4257 19.2397C17.5232 19.0972 17.5959 18.954 17.6387 18.8325C17.0913 18.8107 16.5471 18.7391 16.0127 18.6187C15.7549 18.5623 15.4993 18.4968 15.2462 18.4222L15.2117 18.4117L10.2871 17.3069H10.2856C10.2073 17.293 10.1288 17.2805 10.0501 17.2694C9.84639 17.2396 9.64178 17.2163 9.43658 17.1997C9.20586 17.1801 8.97412 17.1756 8.74282 17.1862ZM10.5736 15.8347L10.5871 15.8369L15.6032 16.9619L15.6339 16.9724L15.6429 16.9754L15.6774 16.9859L15.8184 17.0264C15.9422 17.0609 16.1207 17.1067 16.3329 17.1532C16.7634 17.2477 17.3064 17.3347 17.8134 17.3347C18.2814 17.3347 18.7652 17.5094 19.024 17.9835C19.246 18.39 19.1942 18.837 19.111 19.146C19.0075 19.5315 18.7929 19.9365 18.5207 20.2807C18.9233 20.1261 19.3239 19.9661 19.7222 19.8007L19.8145 19.7632C21.0317 19.263 22.4747 18.6705 23.7475 18.4605C25.2025 18.2197 26.2608 18.7477 26.7408 19.6845C27.1683 20.5185 27.0693 21.6128 26.4258 22.272C26.2645 22.4378 26.0185 22.6118 25.7718 22.7715C25.4608 22.9706 25.1442 23.1606 24.8223 23.3415C23.9937 23.8056 23.155 24.2512 22.3067 24.678C20.5285 25.5803 18.6639 26.4578 18.0714 26.6746C17.3844 26.9258 16.6464 26.9498 15.9377 26.9131C15.5099 26.8865 15.0828 26.8502 14.6566 26.8043C14.3445 26.772 14.032 26.7433 13.7191 26.7181C12.2731 26.6086 11.1631 26.2553 10.1416 25.9306L10.0171 25.8908C8.96182 25.5556 7.98006 25.2585 6.67879 25.206C6.23628 25.1888 5.13602 25.2458 4.54351 25.2803L3.75 25.3268V17.3564L4.24876 17.1794C5.26502 16.8179 7.2353 16.1092 7.71755 15.8894C8.01906 15.7522 8.36781 15.7057 8.65656 15.6884C8.95534 15.6739 9.25475 15.6792 9.55283 15.7042C9.88635 15.7308 10.2185 15.7728 10.5481 15.8302L10.5661 15.8332L10.5706 15.8339L10.5736 15.8347Z" fill="#324A50"/>
<path fill-rule="evenodd" clip-rule="evenodd" d="M0 17.1798C0 16.782 0.158037 16.4005 0.439346 16.1192C0.720654 15.8378 1.10219 15.6798 1.50002 15.6798H3.75005C4.14788 15.6798 4.52942 15.8378 4.81072 16.1192C5.09203 16.4005 5.25007 16.782 5.25007 17.1798V25.4269C5.25007 25.8248 5.09203 26.2063 4.81072 26.4876C4.52942 26.7689 4.14788 26.927 3.75005 26.927H1.50002C1.10219 26.927 0.720654 26.7689 0.439346 26.4876C0.158037 26.2063 0 25.8248 0 25.4269V17.1798ZM1.50002 17.1798V25.4269H3.75005V17.1806L1.50002 17.1798ZM9.97438 9.73823L9.98938 9.72323C10.0796 9.63243 10.13 9.50951 10.1296 9.38151C10.1292 9.25352 10.0779 9.13093 9.98713 9.04072C9.89633 8.95052 9.77341 8.90007 9.64541 8.9005C9.51742 8.90092 9.39483 8.95217 9.30462 9.04297L7.8346 10.5227C7.69506 10.6631 7.52911 10.7745 7.34632 10.8504C7.16354 10.9264 6.96753 10.9654 6.76959 10.9652H4.83081C4.70291 10.9652 4.58025 11.0161 4.48981 11.1065C4.39937 11.1969 4.34856 11.3196 4.34856 11.4475C4.34856 11.5754 4.39937 11.6981 4.48981 11.7885C4.58025 11.879 4.70291 11.9298 4.83081 11.9298H6.90084C7.20275 11.9298 7.50156 11.869 7.7795 11.7511C8.05743 11.6332 8.30879 11.4606 8.51861 11.2435L9.97438 9.73823ZM6.77034 9.46448H4.83006C4.30423 9.46448 3.79994 9.67336 3.42812 10.0452C3.0563 10.417 2.84741 10.9213 2.84741 11.4471C2.84741 11.973 3.0563 12.4773 3.42812 12.8491C3.79994 13.2209 4.30423 13.4298 4.83006 13.4298H6.90009C7.40321 13.4299 7.90121 13.3287 8.36442 13.1324C8.82764 12.936 9.24661 12.6484 9.59638 12.2868L11.0514 10.7815C11.4222 10.4087 11.6297 9.90394 11.6283 9.37817C11.6269 8.85241 11.4167 8.34874 11.0439 7.97796C10.6711 7.60718 10.1663 7.39967 9.64058 7.40108C9.11481 7.40248 8.61114 7.61269 8.24036 7.98546L6.76959 9.46448H6.77034ZM20.0553 5.17817C20.3059 5.18526 20.5553 5.14203 20.7889 5.05102C21.0225 4.96002 21.2355 4.8231 21.4153 4.64836C21.595 4.47361 21.7379 4.2646 21.8355 4.03367C21.933 3.80274 21.9833 3.55459 21.9833 3.3039C21.9833 3.0532 21.933 2.80505 21.8355 2.57412C21.7379 2.3432 21.595 2.13418 21.4153 1.95944C21.2355 1.78469 21.0225 1.64777 20.7889 1.55677C20.5553 1.46577 20.3059 1.42253 20.0553 1.42962C19.5674 1.44343 19.1041 1.64695 18.7638 1.99694C18.4236 2.34693 18.2333 2.81579 18.2333 3.3039C18.2333 3.792 18.4236 4.26087 18.7638 4.61086C19.1041 4.96085 19.5674 5.16437 20.0553 5.17817ZM23.4303 3.3039C23.4398 3.753 23.3595 4.19948 23.1942 4.61716C23.0289 5.03483 22.7818 5.41531 22.4676 5.73627C22.1533 6.05724 21.7781 6.31224 21.364 6.48633C20.9499 6.66042 20.5052 6.75009 20.056 6.75009C19.6068 6.75009 19.1621 6.66042 18.748 6.48633C18.3339 6.31224 17.9587 6.05724 17.6445 5.73627C17.3302 5.41531 17.0832 5.03483 16.9178 4.61716C16.7525 4.19948 16.6723 3.753 16.6817 3.3039C16.7003 2.4213 17.064 1.58112 17.6948 0.963504C18.3256 0.345888 19.1732 0 20.056 0C20.9388 0 21.7865 0.345888 22.4172 0.963504C23.048 1.58112 23.4117 2.4213 23.4303 3.3039ZM17.7887 12.9003L17.8435 12.9543C18.1736 13.2648 18.6129 13.4324 19.066 13.4208L19.0953 13.423C19.1049 13.4248 19.1147 13.4259 19.1245 13.426L21.4773 13.423C22.0078 13.4225 22.5164 13.2113 22.8911 12.8358C23.2659 12.4604 23.4762 11.9514 23.4757 11.4209C23.4752 10.8904 23.264 10.3818 22.8885 10.007C22.513 9.63225 22.004 9.42198 21.4735 9.42248H20.0065C19.8565 9.42248 18.769 8.27721 17.959 7.3997C17.6741 7.08967 17.3281 6.84194 16.9428 6.67208C16.5575 6.50222 16.1413 6.4139 15.7202 6.41269H12.0782L12.4292 13.4253H14.7414C15.2095 13.4248 15.6727 13.3301 16.1035 13.147C16.534 12.9633 17.194 12.4128 17.248 12.3588C17.299 12.3078 17.7385 12.8395 17.785 12.8958L17.7887 12.9003ZM15.5147 11.7678L15.55 11.749C15.6785 11.6726 15.8029 11.5895 15.9227 11.5C16.026 11.4232 16.127 11.3434 16.2257 11.2608C16.7357 10.783 17.3395 10.8385 17.5757 10.8887C17.8217 10.9412 17.9965 11.0432 18.0602 11.0815C18.1681 11.1475 18.2694 11.2239 18.3625 11.3095C18.4735 11.4093 18.58 11.5248 18.6512 11.6035C18.7307 11.6913 18.805 11.7775 18.8575 11.8398L18.8875 11.8758C18.9031 11.888 18.9202 11.8981 18.9385 11.9058M15.5147 11.7678C15.2695 11.872 15.0062 11.9245 14.7399 11.926H13.8557L13.6554 7.91271H15.7202C16.1432 7.91271 16.5565 8.09271 16.8565 8.41746C17.2652 8.85997 17.7535 9.38048 18.1645 9.79523C18.367 9.99999 18.568 10.1965 18.739 10.3495C18.8215 10.4222 18.9228 10.51 19.03 10.5872C19.0818 10.6247 19.1658 10.6825 19.2715 10.738L19.276 10.7402C19.3375 10.7732 19.621 10.9225 20.0065 10.9225H21.4735C21.6062 10.9223 21.7335 10.9748 21.8275 11.0685C21.9214 11.1622 21.9743 11.2893 21.9745 11.422C21.9747 11.5547 21.9222 11.682 21.8286 11.776C21.7349 11.8699 21.6077 11.9228 21.475 11.923L19.195 11.9253C19.1521 11.9221 19.109 11.9206 19.066 11.9208H19.027C18.9968 11.9219 18.9667 11.9168 18.9385 11.9058" fill="#324A50"/>
</svg>
