<svg width="27" height="27" viewBox="0 0 27 27" fill="none" xmlns="http://www.w3.org/2000/svg">
<path d="M5.80769 13.5012V8.44352C5.82271 7.44935 6.03375 6.46792 6.42873 5.55545C6.8237 4.64298 7.39484 3.81742 8.10942 3.12606C8.824 2.43471 9.66798 1.89114 10.593 1.52652C11.518 1.1619 12.5059 0.983391 13.5 1.00121C14.4941 0.983391 15.482 1.1619 16.407 1.52652C17.332 1.89114 18.176 2.43471 18.8906 3.12606C19.6052 3.81742 20.1763 4.64298 20.5713 5.55545C20.9662 6.46792 21.1773 7.44935 21.1923 8.44352V13.5012M17.3462 23.5974C18.3662 23.5974 19.3445 23.1921 20.0658 22.4709C20.7871 21.7496 21.1923 20.7713 21.1923 19.7512V15.4243M17.3462 23.5974C17.3462 24.2349 17.0929 24.8463 16.6421 25.2971C16.1913 25.748 15.5798 26.0012 14.9423 26.0012H12.0577C11.4202 26.0012 10.8087 25.748 10.3579 25.2971C9.90711 24.8463 9.65385 24.2349 9.65385 23.5974C9.65385 22.9598 9.90711 22.3484 10.3579 21.8976C10.8087 21.4468 11.4202 21.1935 12.0577 21.1935H14.9423C15.5798 21.1935 16.1913 21.4468 16.6421 21.8976C17.0929 22.3484 17.3462 22.9598 17.3462 23.5974ZM2.92308 10.6166H4.84615C5.10117 10.6166 5.34574 10.7179 5.52606 10.8982C5.70639 11.0786 5.80769 11.3231 5.80769 11.5781V17.3474C5.80769 17.6024 5.70639 17.847 5.52606 18.0273C5.34574 18.2076 5.10117 18.3089 4.84615 18.3089H2.92308C2.41305 18.3089 1.9239 18.1063 1.56326 17.7456C1.20261 17.385 1 16.8959 1 16.3858V12.5397C1 12.0296 1.20261 11.5405 1.56326 11.1799C1.9239 10.8192 2.41305 10.6166 2.92308 10.6166ZM24.0769 18.3089H22.1538C21.8988 18.3089 21.6543 18.2076 21.4739 18.0273C21.2936 17.847 21.1923 17.6024 21.1923 17.3474V11.5781C21.1923 11.3231 21.2936 11.0786 21.4739 10.8982C21.6543 10.7179 21.8988 10.6166 22.1538 10.6166H24.0769C24.587 10.6166 25.0761 10.8192 25.4367 11.1799C25.7974 11.5405 26 12.0296 26 12.5397V16.3858C26 16.8959 25.7974 17.385 25.4367 17.7456C25.0761 18.1063 24.587 18.3089 24.0769 18.3089Z" stroke="#324A50" stroke-width="1.5" stroke-linecap="round" stroke-linejoin="round"/>
</svg>
