<svg width="23" height="20" viewBox="0 0 23 20" fill="none" xmlns="http://www.w3.org/2000/svg">
<path d="M16.6339 0C14.5136 0 12.6572 0.911786 11.5 2.45299C10.3428 0.911786 8.48638 0 6.36607 0C4.67827 0.00190236 3.06014 0.673223 1.86668 1.86668C0.673223 3.06014 0.00190236 4.67827 0 6.36607C0 13.5536 10.657 19.3713 11.1108 19.6116C11.2305 19.676 11.3642 19.7096 11.5 19.7096C11.6358 19.7096 11.7695 19.676 11.8892 19.6116C12.343 19.3713 23 13.5536 23 6.36607C22.9981 4.67827 22.3268 3.06014 21.1333 1.86668C19.9399 0.673223 18.3217 0.00190236 16.6339 0ZM11.5 17.9482C9.62509 16.8557 1.64286 11.8789 1.64286 6.36607C1.64449 5.1139 2.14263 3.91348 3.02806 3.02805C3.91348 2.14263 5.1139 1.64449 6.36607 1.64286C8.36317 1.64286 10.0399 2.70661 10.7402 4.41518C10.8021 4.56584 10.9073 4.6947 11.0426 4.78538C11.1779 4.87607 11.3371 4.92449 11.5 4.92449C11.6629 4.92449 11.8221 4.87607 11.9574 4.78538C12.0927 4.6947 12.1979 4.56584 12.2598 4.41518C12.9601 2.70353 14.6368 1.64286 16.6339 1.64286C17.8861 1.64449 19.0865 2.14263 19.9719 3.02805C20.8574 3.91348 21.3555 5.1139 21.3571 6.36607C21.3571 11.8707 13.3729 16.8547 11.5 17.9482Z" fill="#324A50"/>
</svg>
