<svg width="34" height="34" viewBox="0 0 34 34" fill="none" xmlns="http://www.w3.org/2000/svg">
<path d="M4.55556 17H1L17 1L33 17H29.4444M4.55556 17V29.4444C4.55556 30.3874 4.93016 31.2918 5.59695 31.9586C6.26375 32.6254 7.16812 33 8.11111 33H25.8889C26.8319 33 27.7362 32.6254 28.403 31.9586C29.0698 31.2918 29.4444 30.3874 29.4444 29.4444V17" stroke="#324A50" stroke-width="2" stroke-linecap="round" stroke-linejoin="round"/>
<path d="M11.6641 33.0001V22.3334C11.6641 21.3904 12.0387 20.486 12.7055 19.8192C13.3723 19.1524 14.2766 18.7778 15.2196 18.7778H18.7752C19.7182 18.7778 20.6225 19.1524 21.2893 19.8192C21.9561 20.486 22.3307 21.3904 22.3307 22.3334V33.0001" stroke="#324A50" stroke-width="2" stroke-linecap="round" stroke-linejoin="round"/>
</svg>
