<svg width="25" height="25" viewBox="0 0 25 25" fill="none" xmlns="http://www.w3.org/2000/svg">
<path d="M17.0995 19.3993L14.7993 17.0991H12.4991L10.935 15.535C9.3362 16.092 7.59565 16.0898 5.99826 15.5287C4.40086 14.9677 3.04123 13.881 2.14189 12.4465C1.24255 11.0121 0.856771 9.31483 1.04769 7.63257C1.23862 5.9503 1.99494 4.38267 3.19286 3.18625C4.39079 1.98982 5.95937 1.23547 7.64187 1.04665C9.32437 0.857828 11.0211 1.24573 12.4545 2.14687C13.8878 3.048 14.9728 4.40899 15.5318 6.00709C16.0909 7.60518 16.0909 9.34573 15.5319 10.9438L24 19.3993V23.9996H19.3997L17.0995 21.6995V19.3993Z" stroke="#324A50" stroke-width="2" stroke-linecap="round" stroke-linejoin="round"/>
<path d="M6.74444 7.89783C6.10927 7.89783 5.59436 7.38292 5.59436 6.74774C5.59436 6.11257 6.10927 5.59766 6.74444 5.59766C7.37962 5.59766 7.89453 6.11257 7.89453 6.74774C7.89453 7.38292 7.37962 7.89783 6.74444 7.89783Z" stroke="#324A50" stroke-width="2" stroke-linecap="round" stroke-linejoin="round"/>
</svg>
