<svg width="25" height="25" viewBox="0 0 25 25" fill="none" xmlns="http://www.w3.org/2000/svg">
<g clip-path="url(#clip0_253_252)">
<path d="M20.8331 2.08337H9.722V5.5556H11.1109V3.47226H20.8331C21.2498 3.47226 21.5276 3.75004 21.5276 4.16671V11.8056C21.5276 12.2223 21.2498 12.5 20.8331 12.5H11.8053V17.3612H8.12478L5.55534 19.375V17.3612H3.47201C3.05534 17.3612 2.77756 17.0834 2.77756 16.6667V9.02782C2.77756 8.61115 3.05534 8.33337 3.47201 8.33337H12.4998V6.94448H3.47201C2.29145 6.94448 1.38867 7.84726 1.38867 9.02782V16.6667C1.38867 17.8473 2.29145 18.75 3.47201 18.75H4.16645V22.2917L8.54145 18.75H13.1942V13.8889H20.8331C22.0137 13.8889 22.9164 12.9862 22.9164 11.8056V4.16671C22.9164 2.98615 22.0137 2.08337 20.8331 2.08337Z" fill="#324A50"/>
<path d="M4.30566 15.9027H5.97233L6.389 14.7916H8.54178L8.95844 15.9027H10.6251L8.264 9.72217H6.59733L4.30566 15.9027ZM7.43066 11.4583L8.12511 13.6111H6.73622L7.43066 11.4583Z" fill="#324A50"/>
<path d="M13.8887 11.8055C14.6526 11.8055 15.6942 11.5972 16.6664 11.1111C17.6387 11.5972 18.7498 11.8055 19.4442 11.8055V10.4166C19.4442 10.4166 18.7498 10.4166 17.9859 10.1388C18.8192 9.30551 19.4442 8.05551 19.4442 6.24996V5.55551H17.3609V4.16663H15.972V5.55551H13.8887V6.9444H17.9859C17.847 8.1944 17.2914 8.95829 16.6664 9.4444C16.2498 9.09718 15.8331 8.61107 15.5553 7.98607H14.097C14.3748 8.88885 14.7914 9.58329 15.347 10.1388C14.6526 10.4166 14.0276 10.4166 13.8887 10.4166V11.8055Z" fill="#324A50"/>
</g>
<defs>
<clipPath id="clip0_253_252">
<rect width="25" height="25" fill="white"/>
</clipPath>
</defs>
</svg>
