<svg width="27" height="27" viewBox="0 0 27 27" fill="none" xmlns="http://www.w3.org/2000/svg">
<path d="M23.3678 10.8689C23.3678 10.6945 23.2985 10.5271 23.1751 10.4038C23.0517 10.2804 22.8844 10.2111 22.7099 10.2111C22.5354 10.2111 22.3681 10.2804 22.2447 10.4038C22.1214 10.5271 22.0521 10.6945 22.0521 10.8689H23.3678ZM4.94794 10.8689C4.94794 10.6945 4.87863 10.5271 4.75526 10.4038C4.63189 10.2804 4.46456 10.2111 4.29009 10.2111C4.11561 10.2111 3.94829 10.2804 3.82492 10.4038C3.70154 10.5271 3.63224 10.6945 3.63224 10.8689H4.94794ZM24.8756 13.9661C24.9991 14.0896 25.1666 14.159 25.3413 14.159C25.516 14.159 25.6836 14.0896 25.8071 13.9661C25.9306 13.8426 26 13.675 26 13.5003C26 13.3256 25.9306 13.1581 25.8071 13.0346L24.8756 13.9661ZM13.5 1.65903L13.9658 1.19327C13.9047 1.132 13.8321 1.0834 13.7521 1.05024C13.6722 1.01707 13.5865 1 13.5 1C13.4135 1 13.3278 1.01707 13.2479 1.05024C13.1679 1.0834 13.0954 1.132 13.0342 1.19327L13.5 1.65903ZM1.19292 13.0346C1.0694 13.1581 1 13.3256 1 13.5003C1 13.675 1.0694 13.8426 1.19292 13.9661C1.31645 14.0896 1.48399 14.159 1.65868 14.159C1.83338 14.159 2.00091 14.0896 2.12444 13.9661L1.19292 13.0346ZM6.92149 25.9995H20.0785V24.6838H6.92149V25.9995ZM23.3678 22.7103V10.8689H22.0521V22.7103H23.3678ZM4.94794 22.7103V10.8689H3.63224V22.7103H4.94794ZM25.8071 13.0346L13.9658 1.19327L13.0342 2.12479L24.8756 13.9661L25.8071 13.0346ZM13.0342 1.19327L1.19292 13.0346L2.12444 13.9661L13.9658 2.12479L13.0342 1.19327ZM20.0785 25.9995C20.9509 25.9995 21.7875 25.653 22.4044 25.0361C23.0212 24.4193 23.3678 23.5826 23.3678 22.7103H22.0521C22.0521 23.2337 21.8441 23.7357 21.474 24.1058C21.1039 24.4759 20.6019 24.6838 20.0785 24.6838V25.9995ZM6.92149 24.6838C6.39807 24.6838 5.89609 24.4759 5.52598 24.1058C5.15586 23.7357 4.94794 23.2337 4.94794 22.7103H3.63224C3.63224 23.5826 3.97878 24.4193 4.59564 25.0361C5.21249 25.653 6.04913 25.9995 6.92149 25.9995V24.6838Z" fill="#324A50"/>
<path d="M23.3678 10.8689C23.3678 10.6945 23.2985 10.5271 23.1751 10.4038C23.0517 10.2804 22.8844 10.2111 22.7099 10.2111C22.5354 10.2111 22.3681 10.2804 22.2447 10.4038C22.1214 10.5271 22.0521 10.6945 22.0521 10.8689M23.3678 10.8689H22.0521M23.3678 10.8689V22.7103M22.0521 10.8689V22.7103M4.94794 10.8689C4.94794 10.6945 4.87863 10.5271 4.75526 10.4038C4.63189 10.2804 4.46456 10.2111 4.29009 10.2111C4.11561 10.2111 3.94829 10.2804 3.82492 10.4038C3.70154 10.5271 3.63224 10.6945 3.63224 10.8689M4.94794 10.8689H3.63224M4.94794 10.8689V22.7103M3.63224 10.8689V22.7103M24.8756 13.9661C24.9991 14.0896 25.1666 14.159 25.3413 14.159C25.516 14.159 25.6836 14.0896 25.8071 13.9661C25.9306 13.8426 26 13.675 26 13.5003C26 13.3256 25.9306 13.1581 25.8071 13.0346M24.8756 13.9661L25.8071 13.0346M24.8756 13.9661L13.0342 2.12479L13.9658 1.19327M25.8071 13.0346L13.9658 1.19327M13.9658 1.19327L13.5 1.65903L13.0342 1.19327M13.9658 1.19327C13.9047 1.132 13.8321 1.0834 13.7521 1.05024C13.6722 1.01707 13.5865 1 13.5 1C13.4135 1 13.3278 1.01707 13.2479 1.05024C13.1679 1.0834 13.0954 1.132 13.0342 1.19327M13.0342 1.19327L1.19292 13.0346M13.0342 1.19327L13.9658 2.12479L2.12444 13.9661M1.19292 13.0346C1.0694 13.1581 1 13.3256 1 13.5003C1 13.675 1.0694 13.8426 1.19292 13.9661C1.31645 14.0896 1.48399 14.159 1.65868 14.159C1.83338 14.159 2.00091 14.0896 2.12444 13.9661M1.19292 13.0346L2.12444 13.9661M6.92149 25.9995H20.0785M6.92149 25.9995V24.6838M6.92149 25.9995C6.04913 25.9995 5.21249 25.653 4.59564 25.0361C3.97878 24.4193 3.63224 23.5826 3.63224 22.7103M20.0785 25.9995V24.6838M20.0785 25.9995C20.9509 25.9995 21.7875 25.653 22.4044 25.0361C23.0212 24.4193 23.3678 23.5826 23.3678 22.7103M20.0785 24.6838H6.92149M20.0785 24.6838C20.6019 24.6838 21.1039 24.4759 21.474 24.1058C21.8441 23.7357 22.0521 23.2337 22.0521 22.7103M6.92149 24.6838C6.39807 24.6838 5.89609 24.4759 5.52598 24.1058C5.15586 23.7357 4.94794 23.2337 4.94794 22.7103M23.3678 22.7103H22.0521M4.94794 22.7103H3.63224" stroke="#324A50" stroke-width="0.5"/>
<path d="M16.4495 10.75H16.4492C15.286 10.75 14.2442 11.2065 13.5328 11.9999C12.8214 11.2065 11.7796 10.75 10.6164 10.75L10.6161 10.75C9.59109 10.7512 8.60841 11.1588 7.88363 11.8836C7.15884 12.6084 6.75116 13.5911 6.75 14.6161V14.6164C6.75 16.7748 8.34148 18.6865 9.89448 20.0466C11.4582 21.416 13.0524 22.2862 13.1941 22.3613C13.2982 22.4172 13.4146 22.4464 13.5328 22.4464C13.6507 22.4464 13.7668 22.4173 13.8708 22.3617C14.0082 22.289 15.6049 21.4181 17.1711 20.0466C18.7241 18.6865 20.3156 16.7748 20.3156 14.6164V14.6161C20.3144 13.5911 19.9067 12.6084 19.1819 11.8836C18.4572 11.1588 17.4745 10.7512 16.4495 10.75ZM12.8698 13.6029L12.8699 13.6031C12.9239 13.7346 13.0157 13.847 13.1338 13.9261C13.2518 14.0052 13.3907 14.0474 13.5328 14.0474C13.6749 14.0474 13.8138 14.0052 13.9318 13.9261C14.0498 13.847 14.1417 13.7346 14.1957 13.6031L14.1958 13.6028C14.5512 12.7341 15.4053 12.1833 16.4491 12.1833C17.0941 12.1841 17.7125 12.4408 18.1687 12.8969C18.6248 13.3531 18.8815 13.9716 18.8823 14.6167C18.8822 16.0674 17.8213 17.4928 16.5614 18.6626C15.4035 19.7377 14.1297 20.5493 13.5327 20.9056C12.9352 20.5497 11.6614 19.7391 10.5037 18.6645C9.24407 17.4953 8.18333 16.0697 8.18326 14.6165C8.18414 13.9714 8.44079 13.3531 8.89692 12.8969C9.35305 12.4408 9.97145 12.1841 10.6165 12.1833C11.6601 12.1833 12.5144 12.7357 12.8698 13.6029Z" fill="#324A50" stroke="#324A50" stroke-width="0.5"/>
</svg>
