<svg width="20" height="27" viewBox="0 0 20 27" fill="none" xmlns="http://www.w3.org/2000/svg">
<path d="M10 2.5C12.75 2.5 15 4.75 15 7.5C15 10.125 12.375 14.375 10 17.375C7.625 14.25 5 10.125 5 7.5C5 4.75 7.25 2.5 10 2.5ZM10 0C5.875 0 2.5 3.375 2.5 7.5C2.5 13.125 10 21.25 10 21.25C10 21.25 17.5 13 17.5 7.5C17.5 3.375 14.125 0 10 0ZM10 5C8.625 5 7.5 6.125 7.5 7.5C7.5 8.875 8.625 10 10 10C11.375 10 12.5 8.875 12.5 7.5C12.5 6.125 11.375 5 10 5ZM20 21.25C20 24 15.5 26.25 10 26.25C4.5 26.25 0 24 0 21.25C0 19.625 1.5 18.25 3.875 17.25L4.625 18.375C3.375 19 2.5 19.75 2.5 20.625C2.5 22.375 5.875 23.75 10 23.75C14.125 23.75 17.5 22.375 17.5 20.625C17.5 19.75 16.625 19 15.25 18.375L16 17.25C18.5 18.25 20 19.625 20 21.25Z" fill="white"/>
</svg>
