<svg width="20" height="25" viewBox="0 0 20 25" fill="none" xmlns="http://www.w3.org/2000/svg">
<path d="M16.9231 9.23077H16.1538V6.295C16.1538 2.765 13.5996 0 9.97154 0C6.32885 0 3.84615 2.82385 3.84615 6.295V9.23077H3.07692C1.38 9.23077 0 10.6108 0 12.3077V21.5385C0 23.2354 1.38 24.6154 3.07692 24.6154H16.9231C18.62 24.6154 20 23.2354 20 21.5385V12.3077C20 10.6108 18.62 9.23077 16.9231 9.23077ZM5.38462 6.295C5.38462 3.67269 7.17692 1.53846 9.97154 1.53846C12.7373 1.53846 14.6154 3.62769 14.6154 6.295V9.23077H5.38462V6.295ZM18.4616 21.5385C18.4616 22.3865 17.7712 23.0769 16.9231 23.0769H3.07695C2.22887 23.0769 1.53849 22.3865 1.53849 21.5385V12.3077C1.53849 11.4596 2.22887 10.7692 3.07695 10.7692H16.9231C17.7712 10.7692 18.4616 11.4596 18.4616 12.3077V21.5385ZM10 13.8462C9.15041 13.8462 8.46156 14.535 8.46156 15.3846C8.46156 15.9527 8.7731 16.4431 9.23079 16.7096V19.2308C9.23079 19.6554 9.57541 20 10 20C10.4246 20 10.7693 19.6554 10.7693 19.2308V16.7096C11.2269 16.4431 11.5385 15.9523 11.5385 15.3846C11.5385 14.535 10.8496 13.8462 10 13.8462Z" fill="#324A50"/>
</svg>
