<svg width="25" height="17" viewBox="0 0 25 17" fill="none" xmlns="http://www.w3.org/2000/svg">
<path d="M0 15.3809V1.4947C0 1.47862 0.024108 1.32594 0.072324 1.03664L8.24494 8.02796L0.096432 15.8631C0.032144 15.6381 0 15.4773 0 15.3809ZM1.08486 0.072324C1.19736 0.024108 1.33398 0 1.4947 0H23.5053C23.65 0 23.7946 0.024108 23.9392 0.072324L15.7425 7.08775L14.6577 7.95564L12.5121 9.71552L10.3664 7.95564L9.28158 7.08775L1.08486 0.072324ZM1.10897 16.8033L9.3298 8.91996L12.5121 11.4995L15.6943 8.91996L23.9151 16.8033C23.7866 16.8515 23.65 16.8756 23.5053 16.8756H12.5H1.4947C1.36612 16.8756 1.23754 16.8515 1.10897 16.8033ZM16.7792 8.02796L24.9277 1.03664C24.9759 1.18129 25 1.33398 25 1.4947V15.3809C25 15.5256 24.9759 15.6863 24.9277 15.8631L16.7792 8.02796Z" fill="black"/>
</svg>
