<svg width="32" height="32" viewBox="0 0 32 32" fill="none" xmlns="http://www.w3.org/2000/svg">
<path d="M8.24737 22.8553H8.14382L8.07059 22.9285L2.82895 28.1701V5.73684C2.82895 4.96562 3.13531 4.22599 3.68065 3.68065C4.22599 3.13531 4.96562 2.82895 5.73684 2.82895H26.2632C27.0344 2.82895 27.774 3.13531 28.3193 3.68065C28.8647 4.22599 29.1711 4.96562 29.1711 5.73684V19.9474C29.1711 20.7186 28.8647 21.4582 28.3193 22.0036C27.774 22.5489 27.0344 22.8553 26.2632 22.8553H8.24737ZM2.57895 31.25H2.6825L2.75572 31.1768L8.99829 24.9342H26.2632C27.5858 24.9342 28.8542 24.4088 29.7894 23.4736C30.7246 22.5384 31.25 21.27 31.25 19.9474V5.73684C31.25 4.41425 30.7246 3.14583 29.7894 2.21061C28.8542 1.2754 27.5858 0.75 26.2632 0.75H5.73684C4.41425 0.75 3.14583 1.2754 2.21061 2.21061C1.2754 3.14583 0.75 4.41425 0.75 5.73684V31V31.25H1H2.57895ZM9.95677 10.9906C9.46572 10.4996 8.79971 10.2237 8.10526 10.2237C7.41081 10.2237 6.74481 10.4996 6.25376 10.9906C5.76271 11.4817 5.48684 12.1477 5.48684 12.8421C5.48684 13.5366 5.76271 14.2026 6.25376 14.6936C6.74481 15.1847 7.41081 15.4605 8.10526 15.4605C8.79971 15.4605 9.46572 15.1847 9.95677 14.6936C10.4478 14.2026 10.7237 13.5366 10.7237 12.8421C10.7237 12.1477 10.4478 11.4817 9.95677 10.9906ZM7.7238 12.4606C7.82497 12.3595 7.96219 12.3026 8.10526 12.3026C8.24834 12.3026 8.38556 12.3595 8.48673 12.4606C8.5879 12.5618 8.64474 12.699 8.64474 12.8421C8.64474 12.9852 8.5879 13.1224 8.48673 13.2236C8.38556 13.3247 8.24834 13.3816 8.10526 13.3816C7.96219 13.3816 7.82497 13.3247 7.7238 13.2236C7.62263 13.1224 7.56579 12.9852 7.56579 12.8421C7.56579 12.699 7.62263 12.5618 7.7238 12.4606ZM17.8515 10.9906C17.3605 10.4996 16.6944 10.2237 16 10.2237C15.3056 10.2237 14.6395 10.4996 14.1485 10.9906C13.6574 11.4817 13.3816 12.1477 13.3816 12.8421C13.3816 13.5366 13.6574 14.2026 14.1485 14.6936C14.6395 15.1847 15.3056 15.4605 16 15.4605C16.6944 15.4605 17.3605 15.1847 17.8515 14.6936C18.3426 14.2026 18.6184 13.5366 18.6184 12.8421C18.6184 12.1477 18.3426 11.4817 17.8515 10.9906ZM15.6185 12.4606C15.7197 12.3595 15.8569 12.3026 16 12.3026C16.1431 12.3026 16.2803 12.3595 16.3815 12.4606C16.4826 12.5618 16.5395 12.699 16.5395 12.8421C16.5395 12.9852 16.4826 13.1224 16.3815 13.2236C16.2803 13.3247 16.1431 13.3816 16 13.3816C15.8569 13.3816 15.7197 13.3247 15.6185 13.2236C15.5174 13.1224 15.4605 12.9852 15.4605 12.8421C15.4605 12.699 15.5174 12.5618 15.6185 12.4606ZM25.7462 10.9906C25.2552 10.4996 24.5892 10.2237 23.8947 10.2237C23.2003 10.2237 22.5343 10.4996 22.0432 10.9906C21.5522 11.4817 21.2763 12.1477 21.2763 12.8421C21.2763 13.5366 21.5522 14.2026 22.0432 14.6936C22.5343 15.1847 23.2003 15.4605 23.8947 15.4605C24.5892 15.4605 25.2552 15.1847 25.7462 14.6936C26.2373 14.2026 26.5132 13.5366 26.5132 12.8421C26.5132 12.1477 26.2373 11.4817 25.7462 10.9906ZM23.5133 12.4606C23.6144 12.3595 23.7517 12.3026 23.8947 12.3026C24.0378 12.3026 24.175 12.3595 24.2762 12.4606C24.3774 12.5618 24.4342 12.699 24.4342 12.8421C24.4342 12.9852 24.3774 13.1224 24.2762 13.2236C24.175 13.3247 24.0378 13.3816 23.8947 13.3816C23.7517 13.3816 23.6144 13.3247 23.5133 13.2236C23.4121 13.1224 23.3553 12.9852 23.3553 12.8421C23.3553 12.699 23.4121 12.5618 23.5133 12.4606Z" fill="#324A50" stroke="#324A50" stroke-width="0.5"/>
</svg>
