<svg width="25" height="18" viewBox="0 0 25 18" fill="none" xmlns="http://www.w3.org/2000/svg">
<path d="M16.0156 5.46885C16.5564 5.46885 17.0851 5.30848 17.5348 5.00802C17.9844 4.70755 18.3349 4.28049 18.5419 3.78084C18.7488 3.28119 18.803 2.73139 18.6975 2.20097C18.592 1.67054 18.3315 1.18331 17.9491 0.800896C17.5667 0.41848 17.0795 0.158051 16.5491 0.0525424C16.0186 -0.0529659 15.4688 0.00118478 14.9692 0.208147C14.4695 0.415109 14.0425 0.765587 13.742 1.21526C13.4415 1.66493 13.2812 2.19361 13.2812 2.73443C13.2812 3.45964 13.5693 4.15515 14.0821 4.66795C14.5949 5.18076 15.2904 5.46885 16.0156 5.46885ZM16.0156 1.56253C16.2474 1.56253 16.474 1.63126 16.6667 1.76003C16.8594 1.8888 17.0096 2.07182 17.0983 2.28596C17.187 2.5001 17.2102 2.73573 17.165 2.96305C17.1198 3.19038 17.0081 3.39919 16.8443 3.56308C16.6804 3.72697 16.4715 3.83859 16.2442 3.8838C16.0169 3.92902 15.7813 3.90581 15.5671 3.81712C15.353 3.72842 15.17 3.57821 15.0412 3.3855C14.9124 3.19278 14.8437 2.9662 14.8437 2.73443C14.8437 2.42362 14.9672 2.12554 15.1869 1.90577C15.4067 1.686 15.7048 1.56253 16.0156 1.56253ZM24.8908 16.7894L19.5625 7.79702C19.4251 7.56276 19.2286 7.36873 18.9926 7.23436C18.7565 7.09998 18.4894 7.02999 18.2178 7.03138C17.9463 7.02996 17.6793 7.09995 17.4434 7.23434C17.2076 7.36872 17.0112 7.56277 16.874 7.79702L14.3193 12.1096L9.9403 4.67782C9.80231 4.44331 9.60547 4.24889 9.36927 4.11381C9.13307 3.97874 8.86569 3.90768 8.59359 3.90768C8.32149 3.90768 8.05411 3.97874 7.81791 4.11381C7.58171 4.24889 7.38487 4.44331 7.24689 4.67782L0.108087 16.7913C0.0382094 16.91 0.000927488 17.045 1.70829e-05 17.1826C-0.000893322 17.3203 0.0346001 17.4558 0.102902 17.5754C0.171204 17.6949 0.269889 17.7943 0.388961 17.8634C0.508032 17.9326 0.643261 17.969 0.78095 17.9691H24.2189C24.3568 17.969 24.4922 17.9325 24.6114 17.8632C24.7306 17.7939 24.8294 17.6943 24.8976 17.5745C24.9659 17.4546 25.0012 17.3189 25 17.181C24.9988 17.0431 24.9611 16.908 24.8908 16.7894ZM8.59359 5.46885L10.8954 9.37517H6.29179L8.59359 5.46885ZM2.14816 16.4065L5.37088 10.9377H11.8163L13.6464 14.0432L15.039 16.4065H2.14816ZM16.8525 16.4065L15.2255 13.6448L18.2178 8.59391L22.8517 16.4065H16.8525Z" fill="#324A50"/>
</svg>
