<svg width="32" height="23" viewBox="0 0 32 23" fill="none" xmlns="http://www.w3.org/2000/svg">
<path d="M16.5 5L23 7.6V8.46667H22.1333C22.1333 8.58403 22.0871 8.68559 21.9945 8.77135C21.902 8.85712 21.7925 8.9 21.6661 8.9H11.3339C11.2075 8.9 11.098 8.85712 11.0055 8.77135C10.9129 8.68559 10.8667 8.58403 10.8667 8.46667H10V7.6L16.5 5ZM11.7333 9.33333H13.4667V14.5333H14.3333V9.33333H16.0667V14.5333H16.9333V9.33333H18.6667V14.5333H19.5333V9.33333H21.2667V14.5333H21.6661C21.7925 14.5333 21.902 14.5762 21.9945 14.662C22.0871 14.7477 22.1333 14.8493 22.1333 14.9667V15.4H10.8667V14.9667C10.8667 14.8493 10.9129 14.7477 11.0055 14.662C11.098 14.5762 11.2075 14.5333 11.3339 14.5333H11.7333V9.33333ZM22.5328 15.8333C22.6592 15.8333 22.7687 15.8762 22.8612 15.962C22.9537 16.0477 23 16.1493 23 16.2667V17.1333H10V16.2667C10 16.1493 10.0463 16.0477 10.1388 15.962C10.2313 15.8762 10.3408 15.8333 10.4672 15.8333H22.5328Z" fill="#324A50"/>
<rect x="0.5" y="0.5" width="31" height="22" stroke="#959595"/>
</svg>
