<svg width="22" height="22" viewBox="0 0 22 22" fill="none" xmlns="http://www.w3.org/2000/svg">
<path d="M1.375 1.375V20.625H11V22H0V0H11.9775L17.875 5.89746V13.75H16.5V6.875H11V1.375H1.375ZM12.375 2.35254V5.5H15.5225L12.375 2.35254ZM2.75 5.5H9.625V6.875H2.75V5.5ZM15.125 8.25V9.625H2.75V8.25H15.125ZM2.75 12.375V11H15.125V12.375H2.75ZM2.75 15.125V13.75H11V15.125H2.75ZM2.75 17.875V16.5H11V17.875H2.75ZM15.125 15.125H22V16.5H15.125V15.125ZM15.125 19.25V17.875H22V19.25H15.125ZM15.125 22V20.625H22V22H15.125ZM12.375 16.5V15.125H13.75V16.5H12.375ZM12.375 19.25V17.875H13.75V19.25H12.375ZM12.375 22V20.625H13.75V22H12.375Z" fill="#324A50"/>
</svg>
