<svg width="19" height="19" viewBox="0 0 19 19" fill="none" xmlns="http://www.w3.org/2000/svg">
<path d="M17.1 3.8C17.651 3.8 18.0975 3.99 18.449 4.3605C18.81 4.75 19 5.1775 19 5.7V16.15C19 16.6725 18.81 17.1 18.449 17.4895C18.0975 17.86 17.651 18.05 17.1 18.05H1.9C1.349 18.05 0.9025 17.86 0.551 17.4895C0.19 17.1 0 16.6725 0 16.15V5.7C0 5.1775 0.19 4.75 0.551 4.3605C0.9025 3.99 1.349 3.8 1.9 3.8H5.7V1.9C5.7 1.349 5.89 0.9025 6.251 0.551C6.6025 0.19 7.049 0 7.6 0H11.4C11.951 0 12.3975 0.19 12.749 0.551C13.11 0.9025 13.3 1.349 13.3 1.9V3.8H17.1ZM1.9 5.7V16.15H17.1V5.7H1.9ZM11.4 3.8V1.9H7.6V3.8H11.4Z" fill="#324A50"/>
</svg>
