<svg width="21" height="21" viewBox="0 0 21 21" fill="none" xmlns="http://www.w3.org/2000/svg">
<path d="M3.79167 1.75C3.25018 1.75 2.73088 1.9651 2.34799 2.34799C1.9651 2.73088 1.75 3.25018 1.75 3.79167V17.2083C1.75 18.3353 2.6635 19.25 3.79167 19.25H17.2083C17.7498 19.25 18.2691 19.0349 18.652 18.652C19.0349 18.2691 19.25 17.7498 19.25 17.2083V12.5417C19.25 12.3096 19.3422 12.087 19.5063 11.9229C19.6704 11.7589 19.8929 11.6667 20.125 11.6667C20.3571 11.6667 20.5796 11.7589 20.7437 11.9229C20.9078 12.087 21 12.3096 21 12.5417V17.2083C21 18.2139 20.6005 19.1784 19.8894 19.8894C19.1784 20.6005 18.2139 21 17.2083 21H3.79167C2.78605 21 1.82163 20.6005 1.11055 19.8894C0.399478 19.1784 0 18.2139 0 17.2083V3.79167C0 2.78605 0.399478 1.82163 1.11055 1.11055C1.82163 0.399478 2.78605 0 3.79167 0H8.45833C8.6904 0 8.91296 0.0921871 9.07705 0.256281C9.24115 0.420376 9.33333 0.642936 9.33333 0.875C9.33333 1.10706 9.24115 1.32962 9.07705 1.49372C8.91296 1.65781 8.6904 1.75 8.45833 1.75H3.79167ZM11.6667 0.875C11.6667 0.642936 11.7589 0.420376 11.9229 0.256281C12.087 0.0921871 12.3096 0 12.5417 0H20.125C20.3571 0 20.5796 0.0921871 20.7437 0.256281C20.9078 0.420376 21 0.642936 21 0.875V8.45833C21 8.6904 20.9078 8.91296 20.7437 9.07705C20.5796 9.24115 20.3571 9.33333 20.125 9.33333C19.8929 9.33333 19.6704 9.24115 19.5063 9.07705C19.3422 8.91296 19.25 8.6904 19.25 8.45833V2.98667L13.16 9.07667C12.9941 9.23123 12.7747 9.31537 12.5481 9.31137C12.3214 9.30737 12.1051 9.21554 11.9448 9.05522C11.7845 8.89491 11.6926 8.67863 11.6886 8.45194C11.6846 8.22526 11.7688 8.00587 11.9233 7.84L18.0133 1.75H12.5417C12.3096 1.75 12.087 1.65781 11.9229 1.49372C11.7589 1.32962 11.6667 1.10706 11.6667 0.875Z" fill="#324A50"/>
</svg>
