<svg width="45" height="30" viewBox="0 0 45 30" fill="none" xmlns="http://www.w3.org/2000/svg">
<path d="M32.7164 20.9122H29.0812C29.0812 19.2365 27.7181 17.7283 25.6824 17.1418L14.4861 13.9301H0V29.2908H10.9055V27.2799L23.6285 29.989L38.1691 26.4979V25.1015C38.1691 22.7834 35.7336 20.9122 32.7164 20.9122ZM7.27031 26.4979H3.63515V16.7229H7.27031V26.4979ZM23.574 27.0705L10.9055 24.4033V16.7229H13.8318L24.4101 19.7532C25.028 19.9347 25.4461 20.3955 25.4461 20.9122C25.4461 20.9122 21.8109 20.8424 21.2657 20.7027L16.9398 19.5996L15.7947 22.2528L20.1206 23.356C21.0475 23.5934 22.0109 23.7051 22.9924 23.7051H32.7164C33.4253 23.7051 34.0614 24.0402 34.3522 24.501L23.574 27.0705Z" fill="#324A50"/>
<rect x="20.0977" y="1" width="23.9015" height="15.2677" rx="3" stroke="#324A50" stroke-width="2"/>
<ellipse cx="32.0412" cy="8.86047" rx="2.04516" ry="2.04516" fill="#324A50"/>
</svg>
