<svg width="27" height="27" viewBox="0 0 27 27" fill="none" xmlns="http://www.w3.org/2000/svg">
<path d="M21.375 15.75V6.75C21.375 5.5125 20.3625 4.5 19.125 4.5H3.375C2.1375 4.5 1.125 5.5125 1.125 6.75V15.75C1.125 16.9875 2.1375 18 3.375 18H19.125C20.3625 18 21.375 16.9875 21.375 15.75ZM19.125 15.75H3.375V6.75H19.125V15.75ZM11.25 7.875C9.38249 7.875 7.875 9.3825 7.875 11.25C7.875 13.1175 9.38249 14.625 11.25 14.625C13.1175 14.625 14.625 13.1175 14.625 11.25C14.625 9.3825 13.1175 7.875 11.25 7.875Z" fill="#324A50"/>
</svg>
