<svg width="25" height="25" viewBox="0 0 25 25" fill="none" xmlns="http://www.w3.org/2000/svg">
<path d="M12.5004 14.3749C13.7602 14.3749 14.9684 13.8745 15.8591 12.9837C16.7499 12.0929 17.2504 10.8847 17.2504 9.6249C17.2504 8.36512 16.7499 7.15694 15.8591 6.26615C14.9684 5.37535 13.7602 4.8749 12.5004 4.8749C11.2406 4.8749 10.0324 5.37535 9.14163 6.26615C8.25084 7.15694 7.75039 8.36512 7.75039 9.6249C7.75039 10.8847 8.25084 12.0929 9.14163 12.9837C10.0324 13.8745 11.2406 14.3749 12.5004 14.3749ZM13.7632 12.6737C13.3629 12.8395 12.9338 12.9249 12.5004 12.9249C11.6252 12.9249 10.7858 12.5772 10.1669 11.9584C9.54807 11.3395 9.20039 10.5001 9.20039 9.6249C9.20039 8.74969 9.54807 7.91032 10.1669 7.29145C10.7858 6.67258 11.6252 6.3249 12.5004 6.3249C12.9338 6.3249 13.3629 6.41026 13.7632 6.5761C14.1636 6.74194 14.5274 6.98502 14.8338 7.29145C15.1403 7.59788 15.3834 7.96167 15.5492 8.36205C15.715 8.76242 15.8004 9.19154 15.8004 9.6249C15.8004 10.0583 15.715 10.4874 15.5492 10.8878C15.3834 11.2881 15.1403 11.6519 14.8338 11.9584C14.5274 12.2648 14.1636 12.5079 13.7632 12.6737Z" fill="#324A50" stroke="#324A50" stroke-width="0.3"/>
<path d="M6.325 19.8863V19.8859C6.325 19.339 6.7174 18.8848 7.23683 18.809L7.23686 18.809C11.1568 18.2363 13.8524 18.2853 17.781 18.8292C18.0304 18.8654 18.2583 18.9907 18.4226 19.1818C18.587 19.373 18.6766 19.6172 18.675 19.8694V19.8703C18.675 20.1123 18.5917 20.3465 18.4428 20.5284C18.272 20.7365 18.1034 20.9376 17.9379 21.1311C16.3109 22.1589 14.425 22.7031 12.5002 22.7L12.4998 22.7C10.5291 22.7032 8.6004 22.1327 6.94872 21.0585C6.81633 20.8928 6.68223 20.7216 6.54592 20.545C6.40193 20.3557 6.32429 20.1242 6.325 19.8863ZM2.3 12.5002V12.5C2.3 6.86677 6.86677 2.3 12.5 2.3C18.1332 2.3 22.7 6.86677 22.7 12.5V12.5002C22.7035 15.0312 21.7628 17.4686 20.0684 19.3389C19.8526 18.3388 19.0398 17.5395 17.9802 17.393C13.9338 16.833 11.0997 16.7791 7.02731 17.3742C5.96142 17.5297 5.1515 18.3373 4.93345 19.3409C3.23792 17.4704 2.29654 15.0322 2.3 12.5002ZM12.5 24.15C18.9343 24.15 24.15 18.9343 24.15 12.5C24.15 6.06571 18.9343 0.85 12.5 0.85C6.06571 0.85 0.85 6.06571 0.85 12.5C0.85 18.9343 6.06571 24.15 12.5 24.15Z" fill="#324A50" stroke="#324A50" stroke-width="0.3"/>
</svg>
