<svg width="29" height="23" viewBox="0 0 29 23" fill="none" xmlns="http://www.w3.org/2000/svg">
<path d="M3.07692 16.577C4.22398 16.577 5.15385 15.1822 5.15385 13.4616C5.15385 11.741 4.22398 10.3462 3.07692 10.3462C1.92987 10.3462 1 11.741 1 13.4616C1 15.1822 1.92987 16.577 3.07692 16.577Z" stroke="#324A50" stroke-width="2" stroke-linecap="round" stroke-linejoin="round"/>
<path d="M9.30739 7.23077C10.4544 7.23077 11.3843 5.83596 11.3843 4.11538C11.3843 2.39481 10.4544 1 9.30739 1C8.16034 1 7.23047 2.39481 7.23047 4.11538C7.23047 5.83596 8.16034 7.23077 9.30739 7.23077Z" stroke="#324A50" stroke-width="2" stroke-linecap="round" stroke-linejoin="round"/>
<path d="M19.6922 7.23077C20.8392 7.23077 21.7691 5.83596 21.7691 4.11538C21.7691 2.39481 20.8392 1 19.6922 1C18.5451 1 17.6152 2.39481 17.6152 4.11538C17.6152 5.83596 18.5451 7.23077 19.6922 7.23077Z" stroke="#324A50" stroke-width="2" stroke-linecap="round" stroke-linejoin="round"/>
<path d="M25.9226 16.577C27.0697 16.577 27.9995 15.1822 27.9995 13.4616C27.9995 11.741 27.0697 10.3462 25.9226 10.3462C24.7756 10.3462 23.8457 11.741 23.8457 13.4616C23.8457 15.1822 24.7756 16.577 25.9226 16.577Z" stroke="#324A50" stroke-width="2" stroke-linecap="round" stroke-linejoin="round"/>
<path d="M20.7311 17.6154C20.7311 20.4816 17.3665 21.7693 14.5003 21.7693C11.6341 21.7693 8.26953 20.4816 8.26953 17.6154C8.26953 14.7493 10.3465 10.3462 14.5003 10.3462C18.6541 10.3462 20.7311 14.7493 20.7311 17.6154Z" stroke="#324A50" stroke-width="2" stroke-linecap="round" stroke-linejoin="round"/>
</svg>
