<svg width="25" height="35" viewBox="0 0 25 35" fill="none" xmlns="http://www.w3.org/2000/svg">
<path d="M7.25 12.5018V12.5M12.5 12.5018V12.5M17.75 12.5018V12.5M7.25 17.7518V17.75M12.5 17.7518V17.75M23 30V5.5C23 4.57174 22.6313 3.6815 21.9749 3.02513C21.3185 2.36875 20.4283 2 19.5 2H5.5C4.57174 2 3.6815 2.36875 3.02513 3.02513C2.36875 3.6815 2 4.57174 2 5.5V30C2 30.9283 2.36875 31.8185 3.02513 32.4749C3.6815 33.1313 4.57174 33.5 5.5 33.5H19.5C20.4283 33.5 21.3185 33.1313 21.9749 32.4749C22.6313 31.8185 23 30.9283 23 30Z" stroke="#324A50" stroke-width="3" stroke-linecap="round" stroke-linejoin="round"/>
</svg>
