<svg width="21" height="23" viewBox="0 0 21 23" fill="none" xmlns="http://www.w3.org/2000/svg">
<path d="M17.0057 11.0036V4.75033C17.0057 4.67137 16.9902 4.59317 16.96 4.52021C16.9298 4.44726 16.8855 4.38098 16.8296 4.32518L13.6805 1.17606C13.568 1.06347 13.4155 1.00014 13.2564 1H1.60021C1.44103 1 1.28836 1.06324 1.1758 1.1758C1.06324 1.28836 1 1.44103 1 1.60021V20.4069C1 20.5661 1.06324 20.7188 1.1758 20.8313C1.28836 20.9439 1.44103 21.0071 1.60021 21.0071H10.0032M5.00142 9.00284H13.0043M5.00142 5.00142H9.00284M5.00142 13.0043H8.00249" stroke="#324A50" stroke-width="1.5" stroke-linecap="round" stroke-linejoin="round"/>
<path d="M13.0042 1V4.40121C13.0042 4.5604 13.0674 4.71306 13.1799 4.82562C13.2925 4.93819 13.4452 5.00142 13.6044 5.00142H17.0056M16.9976 14.1297L19.5545 14.7789C19.8206 14.8469 20.0076 15.089 19.9996 15.3631C19.8276 21.1232 16.5054 22.0075 16.5054 22.0075C16.5054 22.0075 13.1832 21.1232 13.0112 15.3631C13.0081 15.2297 13.0504 15.0991 13.1313 14.993C13.2122 14.8868 13.3268 14.8113 13.4563 14.7789L16.0132 14.1297C16.3363 14.0476 16.6745 14.0476 16.9976 14.1297Z" stroke="#324A50" stroke-width="1.5" stroke-linecap="round" stroke-linejoin="round"/>
</svg>
