<svg width="25" height="25" viewBox="0 0 25 25" fill="none" xmlns="http://www.w3.org/2000/svg">
<path d="M11.5862 7.408C11.3004 7.60449 11.0713 7.87267 10.9218 8.18565C10.795 8.41846 10.5828 8.59297 10.3299 8.67241C10.0769 8.75186 9.80305 8.73004 9.5659 8.61155C9.32875 8.49306 9.14684 8.28715 9.05849 8.0372C8.97014 7.78725 8.98226 7.51277 9.09227 7.27157C9.36514 6.72312 9.79216 6.14465 10.4525 5.70535C11.1183 5.25922 11.96 5 12.9915 5C13.8892 5 14.8592 5.26604 15.63 5.8445C16.0598 6.15865 16.4083 6.57089 16.6465 7.04692C16.8848 7.52296 17.0059 8.04901 16.9998 8.5813C16.9998 9.99062 16.2999 10.9279 15.5986 11.6032C15.3394 11.8529 15.0543 12.0917 14.8087 12.2963L14.6082 12.4641C14.3977 12.6362 14.1994 12.8227 14.0147 13.0221V14.8912C14.0147 15.1626 13.9069 15.4228 13.715 15.6147C13.5231 15.8066 13.2628 15.9144 12.9915 15.9144C12.7201 15.9144 12.4598 15.8066 12.2679 15.6147C12.076 15.4228 11.9682 15.1626 11.9682 14.8912V12.8816C11.9682 12.5582 12.0596 12.194 12.3052 11.8775C12.6054 11.4955 12.9683 11.1721 13.2848 10.9033L13.5344 10.6946L13.5358 10.6932C13.7705 10.4981 13.9778 10.3249 14.177 10.1311C14.6791 9.64682 14.9533 9.20888 14.9533 8.5813C14.9593 8.36676 14.9122 8.15406 14.816 7.96218C14.7198 7.77031 14.5776 7.60523 14.4021 7.48167C14.0365 7.20744 13.5153 7.04646 12.9915 7.04646C12.3175 7.04646 11.8809 7.21154 11.5862 7.408ZM14.3558 19.3252C14.3558 19.687 14.212 20.034 13.9562 20.2899C13.7003 20.5458 13.3533 20.6895 12.9915 20.6895C12.6296 20.6895 12.2826 20.5458 12.0267 20.2899C11.7709 20.034 11.6272 19.687 11.6272 19.3252C11.6272 18.9634 11.7709 18.6163 12.0267 18.3605C12.2826 18.1046 12.6296 17.9609 12.9915 17.9609C13.3533 17.9609 13.7003 18.1046 13.9562 18.3605C14.212 18.6163 14.3558 18.9634 14.3558 19.3252Z" fill="#324A50"/>
<path d="M12.5 0C19.4034 0 25 5.59659 25 12.5C25 19.4034 19.4034 25 12.5 25C5.59659 25 0 19.4034 0 12.5C0 5.59659 5.59659 0 12.5 0ZM1.70455 12.5C1.70455 15.3631 2.84192 18.109 4.86646 20.1335C6.891 22.1581 9.63687 23.2955 12.5 23.2955C15.3631 23.2955 18.109 22.1581 20.1335 20.1335C22.1581 18.109 23.2955 15.3631 23.2955 12.5C23.2955 9.63687 22.1581 6.891 20.1335 4.86646C18.109 2.84192 15.3631 1.70455 12.5 1.70455C9.63687 1.70455 6.891 2.84192 4.86646 4.86646C2.84192 6.891 1.70455 9.63687 1.70455 12.5Z" fill="#324A50"/>
</svg>
