<svg width="27" height="27" viewBox="0 0 27 27" fill="none" xmlns="http://www.w3.org/2000/svg">
<path fill-rule="evenodd" clip-rule="evenodd" d="M17.6697 12.7043C17.8806 12.9153 17.999 13.2014 17.999 13.4997C17.999 13.798 17.8806 14.0841 17.6697 14.2951L11.3055 20.6592C11.2018 20.7667 11.0776 20.8524 10.9404 20.9113C10.8031 20.9703 10.6555 21.0013 10.5061 21.0026C10.3567 21.0039 10.2086 20.9755 10.0703 20.9189C9.93208 20.8623 9.80647 20.7788 9.70084 20.6732C9.59521 20.5675 9.51168 20.4419 9.45511 20.3037C9.39855 20.1654 9.37008 20.0173 9.37138 19.8679C9.37268 19.7185 9.40371 19.5709 9.46267 19.4336C9.52163 19.2964 9.60734 19.1722 9.71479 19.0685L15.2835 13.4997L9.71479 7.93096C9.50986 7.71879 9.39647 7.43461 9.39903 7.13964C9.40159 6.84467 9.51991 6.5625 9.72849 6.35392C9.93707 6.14533 10.2192 6.02702 10.5142 6.02446C10.8092 6.02189 11.0934 6.13529 11.3055 6.34021L17.6697 12.7043Z" fill="#324A50"/>
</svg>
