<svg width="21" height="25" viewBox="0 0 21 25" fill="none" xmlns="http://www.w3.org/2000/svg">
<path d="M1.65776 4.77441V13.9576C1.65776 18.9568 5.61688 23.0086 10.5 23.0086C15.3831 23.0086 19.3422 18.9568 19.3422 13.9576V4.77935L10.4469 1.78624L1.65776 4.77441ZM10.4444 0L21 3.55024V13.9576C21 19.8932 16.2985 24.7059 10.5 24.7059C4.70153 24.7059 0 19.8932 0 13.9576V3.55024L10.4444 0ZM15.9032 8.01088C15.8225 7.93681 15.7278 7.87975 15.6247 7.84308C15.5215 7.80642 15.412 7.79091 15.3027 7.79748C15.1934 7.80405 15.0866 7.83257 14.9885 7.88133C14.8905 7.93009 14.8033 7.9981 14.7321 8.0813L9.40059 14.2195L5.95659 10.4086C5.88377 10.327 5.79529 10.2609 5.69641 10.2142C5.59753 10.1676 5.49027 10.1412 5.38101 10.1369C5.27175 10.1325 5.16273 10.1501 5.06043 10.1887C4.95813 10.2274 4.86464 10.2862 4.78553 10.3616C4.62356 10.5165 4.52822 10.7282 4.51969 10.9521C4.51115 11.176 4.59011 11.3944 4.73982 11.5611L8.80394 16.0576C8.88135 16.1446 8.9765 16.214 9.08299 16.2612C9.18949 16.3084 9.30485 16.3322 9.42131 16.331C9.53777 16.3298 9.65263 16.3037 9.75815 16.2544C9.86368 16.2051 9.95742 16.1338 10.0331 16.0452L15.9711 9.20912C16.1177 9.03969 16.1925 8.81989 16.1798 8.59624C16.1672 8.37259 16.0679 8.16266 15.9032 8.01088Z" fill="#324A50"/>
</svg>
