<svg width="25" height="27" viewBox="0 0 25 27" fill="none" xmlns="http://www.w3.org/2000/svg">
<path d="M24.6699 16.5601L22.7393 14.9095C22.8307 14.3495 22.8779 13.7777 22.8779 13.2059C22.8779 12.6341 22.8307 12.0623 22.7393 11.5023L24.6699 9.85174C24.8155 9.72708 24.9197 9.56105 24.9687 9.37573C25.0176 9.1904 25.009 8.99456 24.944 8.81425L24.9175 8.73761C24.386 7.25219 23.5901 5.87519 22.5684 4.67313L22.5153 4.61123C22.3914 4.46549 22.2262 4.36072 22.0415 4.31074C21.8568 4.26075 21.6613 4.2679 21.4808 4.33123L19.0845 5.18303C18.2003 4.45797 17.2129 3.88617 16.146 3.48532L15.6832 0.980016C15.6483 0.791506 15.5569 0.61808 15.421 0.48278C15.2852 0.34748 15.1114 0.25671 14.9228 0.22253L14.8432 0.207793C13.3076 -0.0692643 11.6924 -0.0692643 10.1568 0.207793L10.0772 0.22253C9.88858 0.25671 9.7148 0.34748 9.57897 0.48278C9.44315 0.61808 9.3517 0.791506 9.31679 0.980016L8.8511 3.49711C7.79265 3.89804 6.80697 4.46954 5.93316 5.18893L3.51922 4.33123C3.33874 4.26739 3.1431 4.25999 2.95831 4.31001C2.77352 4.36002 2.60833 4.46508 2.48468 4.61123L2.43162 4.67313C1.41107 5.87604 0.615356 7.25282 0.0825336 8.73761L0.0560068 8.81425C-0.0766269 9.18267 0.0324276 9.59531 0.330117 9.85174L2.28425 11.52C2.19288 12.0741 2.14867 12.64 2.14867 13.2029C2.14867 13.7689 2.19288 14.3348 2.28425 14.8859L0.330117 16.5542C0.184502 16.6788 0.0802831 16.8448 0.0313193 17.0302C-0.0176446 17.2155 -0.00903384 17.4113 0.0560068 17.5917L0.0825336 17.6683C0.616016 19.1538 1.40592 20.5243 2.43162 21.7328L2.48468 21.7947C2.60863 21.9404 2.77383 22.0452 2.95851 22.0952C3.14319 22.1451 3.33868 22.138 3.51922 22.0747L5.93316 21.217C6.81149 21.9391 7.79298 22.5109 8.8511 22.9088L9.31679 25.4259C9.3517 25.6144 9.44315 25.7878 9.57897 25.9231C9.7148 26.0584 9.88858 26.1492 10.0772 26.1834L10.1568 26.1981C11.7065 26.4766 13.2935 26.4766 14.8432 26.1981L14.9228 26.1834C15.1114 26.1492 15.2852 26.0584 15.421 25.9231C15.5569 25.7878 15.6483 25.6144 15.6832 25.4259L16.146 22.9206C17.2125 22.5208 18.2054 21.9471 19.0845 21.2229L21.4808 22.0747C21.6613 22.1385 21.8569 22.1459 22.0417 22.0959C22.2265 22.0459 22.3917 21.9408 22.5153 21.7947L22.5684 21.7328C23.5941 20.5214 24.384 19.1538 24.9175 17.6683L24.944 17.5917C25.0766 17.2291 24.9676 16.8165 24.6699 16.5601ZM20.6467 11.8501C20.7203 12.2951 20.7587 12.752 20.7587 13.2088C20.7587 13.6657 20.7203 14.1225 20.6467 14.5676L20.4521 15.7495L22.6539 17.6329C22.3201 18.4019 21.8988 19.1298 21.3983 19.8022L18.663 18.8325L17.7376 19.5929C17.0331 20.1706 16.2491 20.6245 15.4003 20.9429L14.2773 21.3643L13.7497 24.2233C12.9173 24.3177 12.0768 24.3177 11.2444 24.2233L10.7168 21.3584L9.60269 20.9311C8.76268 20.6128 7.98161 20.1588 7.28307 19.5841L6.35758 18.8207L3.6047 19.7993C3.10364 19.1243 2.6851 18.3963 2.3491 17.63L4.5744 15.7289L4.38281 14.5499C4.31208 14.1108 4.27376 13.6569 4.27376 13.2088C4.27376 12.7579 4.30913 12.3069 4.38281 11.8678L4.5744 10.6888L2.3491 8.78772C2.68216 8.01844 3.10364 7.29338 3.6047 6.61842L6.35758 7.59696L7.28307 6.83358C7.98161 6.25884 8.76268 5.80493 9.60269 5.48661L10.7198 5.06513L11.2473 2.20025C12.0756 2.10593 12.9215 2.10593 13.7527 2.20025L14.2802 5.05924L15.4032 5.48072C16.2491 5.79904 17.0361 6.25294 17.7405 6.83064L18.666 7.59107L21.4012 6.62137C21.9023 7.29633 22.3208 8.02434 22.6568 8.79067L20.4551 10.6741L20.6467 11.8501ZM12.5029 7.72665C9.63806 7.72665 7.31549 10.0492 7.31549 12.9141C7.31549 15.779 9.63806 18.1016 12.5029 18.1016C15.3678 18.1016 17.6904 15.779 17.6904 12.9141C17.6904 10.0492 15.3678 7.72665 12.5029 7.72665ZM14.8373 15.2485C14.5311 15.5555 14.1673 15.799 13.7667 15.9649C13.366 16.1308 12.9366 16.2159 12.5029 16.2152C11.6217 16.2152 10.7934 15.8704 10.1686 15.2485C9.86154 14.9423 9.61806 14.5784 9.45214 14.1778C9.28623 13.7772 9.20117 13.3477 9.20184 12.9141C9.20184 12.0328 9.54669 11.2046 10.1686 10.5797C10.7934 9.9549 11.6217 9.613 12.5029 9.613C13.3842 9.613 14.2124 9.9549 14.8373 10.5797C15.1444 10.8859 15.3878 11.2498 15.5538 11.6504C15.7197 12.051 15.8047 12.4805 15.8041 12.9141C15.8041 13.7954 15.4592 14.6236 14.8373 15.2485Z" fill="#324A50"/>
</svg>
