<svg width="39" height="32" viewBox="0 0 39 32" fill="none" xmlns="http://www.w3.org/2000/svg">
<path d="M20.4476 0.246806L37.9983 9.99717C38.9367 10.5213 39.278 11.7096 38.7539 12.6481C38.2298 13.5865 37.0415 13.9278 36.103 13.4037L19.503 4.18352L2.89696 13.4098C1.95848 13.9339 0.770158 13.5926 0.246076 12.6541C-0.278006 11.7157 0.0632568 10.5273 1.00173 10.0033L18.5585 0.246806C19.1496 -0.0822687 19.8626 -0.0822687 20.4537 0.246806H20.4476ZM19.503 9.75341C20.1495 9.75341 20.7695 10.0102 21.2267 10.4674C21.6838 10.9245 21.9406 11.5445 21.9406 12.191C21.9406 12.8375 21.6838 13.4575 21.2267 13.9146C20.7695 14.3718 20.1495 14.6286 19.503 14.6286C18.8566 14.6286 18.2365 14.3718 17.7794 13.9146C17.3223 13.4575 17.0655 12.8375 17.0655 12.191C17.0655 11.5445 17.3223 10.9245 17.7794 10.4674C18.2365 10.0102 18.8566 9.75341 19.503 9.75341ZM8.77765 15.6036C9.42413 15.6036 10.0441 15.8604 10.5013 16.3176C10.9584 16.7747 11.2152 17.3947 11.2152 18.0412C11.2152 18.6877 10.9584 19.3077 10.5013 19.7649C10.0441 20.222 9.42413 20.4788 8.77765 20.4788C8.13116 20.4788 7.51115 20.222 7.05401 19.7649C6.59687 19.3077 6.34005 18.6877 6.34005 18.0412C6.34005 17.3947 6.59687 16.7747 7.05401 16.3176C7.51115 15.8604 8.13116 15.6036 8.77765 15.6036ZM27.7909 18.0412C27.7909 17.3947 28.0477 16.7747 28.5048 16.3176C28.9619 15.8604 29.582 15.6036 30.2284 15.6036C30.8749 15.6036 31.4949 15.8604 31.9521 16.3176C32.4092 16.7747 32.666 17.3947 32.666 18.0412C32.666 18.6877 32.4092 19.3077 31.9521 19.7649C31.4949 20.222 30.8749 20.4788 30.2284 20.4788C29.582 20.4788 28.9619 20.222 28.5048 19.7649C28.0477 19.3077 27.7909 18.6877 27.7909 18.0412ZM13.8296 29.9489L12.1903 26.908V29.2541C12.1903 30.3328 11.3188 31.2042 10.2402 31.2042H7.31509C6.23646 31.2042 5.36502 30.3328 5.36502 29.2541V26.908L3.72574 29.9489C3.34182 30.6618 2.45819 30.9239 1.74519 30.5461C1.0322 30.1682 0.770158 29.2785 1.14798 28.5655L3.4576 24.2815C4.38998 22.5447 6.20599 21.4599 8.18044 21.4599H9.36876C10.3621 21.4599 11.3127 21.7342 12.1354 22.2278L14.183 18.4312C15.1154 16.6945 16.9314 15.6097 18.9058 15.6097H20.0942C22.0686 15.6097 23.8785 16.6945 24.817 18.4312L26.8646 22.2278C27.6873 21.7342 28.6379 21.4599 29.6312 21.4599H30.8196C32.794 21.4599 34.6039 22.5447 35.5424 24.2815L37.852 28.5655C38.2359 29.2785 37.9678 30.1621 37.2548 30.5461C36.5418 30.93 35.6582 30.6618 35.2743 29.9489L33.6411 26.908V29.2541C33.6411 30.3328 32.7696 31.2042 31.691 31.2042H28.7659C27.6873 31.2042 26.8158 30.3328 26.8158 29.2541V26.908L25.1765 29.9489C24.7926 30.6618 23.909 30.9239 23.196 30.5461C22.483 30.1682 22.221 29.2785 22.5988 28.5655L24.8109 24.4521C24.7073 24.3485 24.6159 24.2327 24.5489 24.0986L22.9157 21.0577V24.379C22.9157 25.4576 22.0442 26.329 20.9656 26.329H18.0405C16.9619 26.329 16.0904 25.4576 16.0904 24.379V21.0577L14.4511 24.0986C14.378 24.2327 14.2927 24.3485 14.1891 24.4521L16.4012 28.5655C16.7851 29.2785 16.517 30.1621 15.804 30.5461C15.091 30.93 14.2074 30.6618 13.8235 29.9489H13.8296Z" fill="#324A50"/>
</svg>
