<svg width="19" height="23" viewBox="0 0 19 23" fill="none" xmlns="http://www.w3.org/2000/svg">
<path d="M14.3439 3.62311C15.4176 4.25842 16.7301 4.92997 17.9995 4.97797C17.5825 13.421 14.5934 18.4504 9.49992 21.3776C4.40634 18.4504 1.41651 13.421 1.00038 4.97804C2.27028 4.93058 3.58351 4.25872 4.65758 3.62326C5.10603 3.35794 5.55035 3.07494 5.96073 2.81357C6.06467 2.74737 6.16643 2.68255 6.26553 2.61976C6.77041 2.29988 7.20204 2.03527 7.56878 1.85148C8.09106 1.59012 8.49536 1.38825 8.83199 1.23924C9.16049 1.09383 9.36579 1.02601 9.49957 1.00011C9.50144 0.999999 9.50331 0.999973 9.50519 1.00003C9.63906 1.02651 9.84354 1.09443 10.1689 1.23842C10.5056 1.3874 10.9099 1.58916 11.4324 1.85039C11.7992 2.03443 12.231 2.29926 12.7359 2.6193C12.8345 2.68179 12.9357 2.74628 13.0391 2.81213C13.4499 3.07391 13.8948 3.35736 14.3439 3.62311Z" stroke="#324A50" stroke-width="2"/>
<line x1="10.0186" y1="0.234375" x2="10.0186" y2="21.9383" stroke="#324A50" stroke-width="2"/>
</svg>
