<svg width="25" height="25" viewBox="0 0 25 25" fill="none" xmlns="http://www.w3.org/2000/svg">
<path d="M10.9624 24.9081C8.73285 24.6191 6.43773 23.6629 4.76599 22.3247C1.00224 19.3218 -0.706218 14.5777 0.270265 9.86638C0.68898 7.83217 1.77952 5.69172 3.1755 4.14966C4.20385 2.99233 5.44397 2.04228 6.8291 1.35067C8.66801 0.418716 10.4257 0 12.5005 0C13.9895 0 15.1862 0.195296 16.5572 0.663227C18.3583 1.28102 19.9946 2.30186 21.3413 3.64793C22.6881 4.994 23.7097 6.62977 24.3284 8.43056C25.0612 10.5788 25.1948 12.8653 24.7269 15.1316C24.3527 16.922 23.3879 18.9359 22.2005 20.3921C21.7123 20.9944 20.5889 22.0685 19.9991 22.5036C18.2346 23.8141 16.1595 24.6427 13.9777 24.9081C13.3348 24.9894 11.5842 24.9854 10.9624 24.9081ZM14.3683 23.8629C17.4136 23.3525 20.1315 21.6533 21.924 19.1391C24.0355 16.1729 24.6011 12.1935 23.409 8.7235C23.1285 7.90951 22.4325 6.55102 21.924 5.83468C21.3584 5.03318 19.9585 3.62939 19.1531 3.06381C18.3719 2.51073 17.0415 1.83891 16.1338 1.54206C14.4953 0.997683 12.7553 0.828426 11.0426 1.0468C9.32985 1.26516 7.68806 1.86558 6.23853 2.80368C4.87471 3.69956 3.7089 4.86536 2.81302 6.22918C1.87517 7.67793 1.27487 9.31893 1.0565 11.0309C0.838126 12.7428 1.00726 14.482 1.55141 16.1198C1.85217 17.0267 2.52399 18.3618 3.07316 19.143C3.64264 19.9445 5.04253 21.3482 5.84403 21.9138C6.56428 22.4185 7.91886 23.1137 8.73285 23.3989C10.5446 24.0144 12.4803 24.1738 14.3683 23.8629ZM10.039 19.6718C9.45494 19.5838 8.89461 19.3789 8.39147 19.0695C7.93995 18.7805 4.53007 15.4401 4.36368 15.1269C4.17229 14.7691 4.50586 14.1176 4.98238 13.9184L5.2058 13.8246L4.51835 13.1247C4.14026 12.738 3.7817 12.3271 3.72467 12.2131C3.5903 11.9529 3.5864 11.3952 3.71217 11.1467C3.76529 11.0452 3.89106 10.8905 3.98871 10.8046C4.15588 10.6663 4.17151 10.6171 4.15588 10.2671C4.13557 9.95778 4.1637 9.83591 4.29806 9.6039C4.49336 9.27033 4.89645 9.04613 5.29095 9.04223C5.51046 9.04223 5.56749 9.0141 5.66123 8.85084C5.90574 8.42353 6.6049 8.26885 7.13845 8.52977L7.42749 8.66804L7.56967 8.52977C7.76496 8.35088 8.15556 8.1923 8.41178 8.1923C8.92424 8.1923 9.6484 8.78209 9.6484 9.1969C9.6484 9.69295 9.19688 9.77888 8.74926 9.36798C8.45241 9.09144 8.30164 9.06254 8.17977 9.25783C8.11884 9.35158 8.26492 9.52656 9.13985 10.4093C10.0148 11.2881 10.1734 11.4756 10.1734 11.642C10.1664 11.7696 10.1121 11.8899 10.0211 11.9795C9.93007 12.0691 9.80885 12.1215 9.68121 12.1263C9.52263 12.1263 9.2625 11.8982 8.06181 10.7022C6.83691 9.48125 6.61349 9.28596 6.51585 9.34767C6.25102 9.51484 6.34086 9.63671 7.77277 11.0725C8.55005 11.8537 9.18906 12.5451 9.18906 12.6107C9.18906 12.745 9.0672 12.9935 8.96565 13.0583C8.88234 13.0949 8.79171 13.1117 8.70082 13.1075C8.53365 13.1114 8.27742 12.8794 6.91503 11.5209C5.54796 10.1617 5.30345 9.94215 5.2058 10.0031C4.93707 10.1742 5.02691 10.2921 6.58537 11.8584C7.43608 12.7091 8.14774 13.47 8.16805 13.5512C8.21258 13.6981 8.11493 13.9543 7.98526 14.0434C7.89921 14.08 7.80604 14.0968 7.71262 14.0926C7.54545 14.0926 7.33453 13.9098 6.20728 12.7825C5.12065 11.6959 4.86833 11.4725 4.73006 11.485C4.33946 11.5295 4.47773 11.7045 6.49554 13.727C8.24539 15.4808 8.46881 15.7292 8.46881 15.912C8.47057 15.9791 8.45548 16.0456 8.42491 16.1053C8.39434 16.1651 8.34927 16.2163 8.29383 16.2541C7.98057 16.5026 7.85871 16.4455 7.06893 15.6807C6.66583 15.2941 6.25102 14.9199 6.14088 14.8503C5.94167 14.7285 5.43703 14.6754 5.34329 14.773C5.31048 14.8011 6.05495 15.587 6.99549 16.5182C8.56177 18.068 8.74066 18.2274 9.20078 18.4469C9.62465 18.658 10.0915 18.7685 10.565 18.7699C11.0385 18.7712 11.506 18.6634 11.931 18.4547C13.245 17.8282 13.9738 16.3065 13.6153 14.9269C13.4364 14.2395 13.2122 13.9098 12.3091 12.9778C11.2678 11.9115 11.0272 11.6186 10.771 11.1061C10.4858 10.5327 10.364 9.97496 10.364 9.27893C10.364 8.52586 10.4413 8.18448 10.7749 7.48064C11.092 6.8096 11.7553 6.10575 12.4107 5.74328C13.6965 5.02693 15.3893 5.08786 16.6174 5.89014C16.8619 6.04872 17.7446 6.87912 18.843 7.98138C20.4749 9.61718 20.6616 9.82888 20.6616 10.0156C20.6616 10.4593 20.2991 10.9514 19.8968 11.053C19.746 11.0936 19.7749 11.1342 20.4585 11.8303C20.8569 12.2334 21.2271 12.6685 21.2842 12.8029C21.4756 13.263 21.3896 13.7098 21.0397 14.0762C20.8608 14.2637 20.8365 14.3285 20.8319 14.7027C20.828 15.0324 20.7912 15.1706 20.6608 15.3581C20.5577 15.5106 20.4198 15.6364 20.2584 15.7248C20.0969 15.8133 19.9167 15.8619 19.7327 15.8667C19.4804 15.8667 19.432 15.8909 19.3054 16.0823C19.0203 16.5221 18.2797 16.676 17.8001 16.3916L17.5603 16.2494L17.3892 16.4166C17.0111 16.7791 16.4002 16.8275 15.9369 16.5307C15.5628 16.2948 15.2862 15.9651 15.2862 15.7573C15.2862 15.5745 15.551 15.273 15.7135 15.273C15.8682 15.273 16.076 15.3948 16.3119 15.6151C16.5478 15.8385 16.7517 15.8385 16.7838 15.6112C16.8002 15.4894 16.6049 15.2573 15.8151 14.4637C14.9847 13.6254 14.8261 13.4341 14.8261 13.2716C14.8242 13.1809 14.841 13.0907 14.8753 13.0067C14.9652 12.8724 15.2175 12.7786 15.3714 12.8193C15.4526 12.8396 16.1401 13.4747 16.8931 14.227C17.6501 14.9839 18.3133 15.6018 18.3742 15.6018C18.5414 15.6018 18.6508 15.4347 18.5735 15.2925C18.5367 15.2277 17.8977 14.5722 17.1572 13.8317C15.9979 12.6763 15.8104 12.4607 15.8104 12.2896C15.8066 12.1975 15.8234 12.1057 15.8596 12.0209C15.9291 11.9193 16.1729 11.7975 16.3111 11.7975C16.3721 11.7975 17.1369 12.5091 18.0118 13.3801C19.6148 14.9753 19.7327 15.0644 19.8999 14.8003C19.9608 14.7027 19.7413 14.4543 18.3821 13.0911C16.9783 11.6834 16.7916 11.4717 16.7916 11.2889C16.7916 11.1631 16.8486 11.0327 16.9384 10.9514C17.2353 10.671 17.3251 10.728 18.7695 12.1638C20.1366 13.527 20.2585 13.6161 20.4256 13.3559C20.4866 13.2583 20.21 12.9575 18.5133 11.2561C16.6658 9.40079 16.5322 9.25002 16.5322 9.03442C16.5322 8.70866 16.7197 8.55399 17.0814 8.57898C17.1462 8.58289 17.5368 8.91255 17.9399 9.30705C18.3469 9.70155 18.7859 10.0718 18.9164 10.1289C19.1726 10.2343 19.4695 10.2507 19.596 10.1695C19.7179 10.0921 16.3408 6.76819 15.9018 6.53618C15.5254 6.33301 15.1113 6.20903 14.6852 6.17186C14.2591 6.1347 13.8298 6.18514 13.4239 6.32008C13.018 6.45502 12.644 6.6716 12.3249 6.9565C12.0058 7.2414 11.7484 7.58859 11.5686 7.97669C11.3569 8.42822 11.3287 8.56258 11.2998 9.14456C11.2756 9.69374 11.2959 9.86482 11.4139 10.2148C11.6256 10.8374 11.8084 11.0936 12.7567 12.0623C13.7824 13.1122 13.9777 13.352 14.2379 13.9137C14.9706 15.4761 14.6613 17.283 13.4528 18.4868C12.5333 19.4101 11.2803 19.8421 10.039 19.6718Z" fill="#324A50"/>
</svg>
