<svg width="22" height="22" viewBox="0 0 22 22" fill="none" xmlns="http://www.w3.org/2000/svg">
<path d="M22 20.6695L1.34095 0L0 1.33048L3.09048 4.42095C1.68935 6.23651 0.930319 8.46571 0.932381 10.759C0.932381 16.521 5.64667 21.2352 11.4086 21.2352C13.7971 21.2352 15.9867 20.4286 17.7467 19.0771L20.6695 22L22 20.6695ZM11.4086 19.14C6.78857 19.14 3.02762 15.379 3.02762 10.759C3.02762 8.95714 3.61429 7.29143 4.59905 5.91905L6.09714 7.42762C5.46509 8.42417 5.12737 9.57897 5.12286 10.759C5.12286 12.121 5.56286 13.3781 6.28571 14.3943L7.04 13.64C6.49524 12.8124 6.17048 11.8067 6.17048 10.759C6.17048 9.82667 6.43238 8.95714 6.8619 8.19238L7.63714 8.9781C7.37524 9.51238 7.2181 10.12 7.2181 10.759C7.2181 11.5343 7.44857 12.2571 7.81524 12.8543L8.58 12.1105C8.38095 11.6914 8.26571 11.241 8.26571 10.759C8.26571 10.4133 8.33905 10.0886 8.45429 9.78476L12.3829 13.7133C12.079 13.8286 11.7543 13.9019 11.4086 13.9019C10.9267 13.9019 10.4762 13.7867 10.0676 13.5876L9.31333 14.3524C9.92095 14.7295 10.6333 14.9495 11.4086 14.9495C12.0476 14.9495 12.6552 14.7924 13.2 14.5305L13.9752 15.3057C13.2105 15.7352 12.341 15.9971 11.4086 15.9971C10.361 15.9971 9.35524 15.6724 8.52762 15.1276L7.77333 15.8819C8.78952 16.6152 10.0467 17.0448 11.4086 17.0448C12.6343 17.0448 13.7657 16.6781 14.74 16.0705L16.2486 17.5686C14.8867 18.5533 13.2105 19.14 11.4086 19.14ZM11.4086 6.56857C12.1838 6.56857 12.9067 6.79905 13.5038 7.16571L12.76 7.93048C12.4143 7.77333 12.0371 7.67905 11.6495 7.64762L10.6543 6.65238C10.8848 6.6 11.1467 6.56857 11.4086 6.56857ZM14.52 10.5181C14.4886 10.1305 14.4048 9.75333 14.2371 9.4181L15.0019 8.66381C15.379 9.27143 15.599 9.98381 15.599 10.759C15.599 11.021 15.5676 11.2829 15.5152 11.5133L14.52 10.5181ZM14.2895 6.39048C13.4619 5.84571 12.4562 5.52095 11.4086 5.52095C10.8429 5.52095 10.2981 5.61524 9.78476 5.78286L8.98857 4.99714C9.73238 4.66191 10.5495 4.47333 11.4086 4.47333C12.7705 4.47333 14.0276 4.91333 15.0438 5.63619L14.2895 6.39048ZM7.40667 3.42571L5.87714 1.85429C7.48 0.869524 9.37619 0.282857 11.4086 0.282857C17.1705 0.282857 21.8848 4.99714 21.8848 10.759C21.8848 12.7914 21.2981 14.6876 20.3133 16.2905L18.7419 14.7714C19.4229 13.5771 19.7895 12.2048 19.7895 10.759C19.7895 6.13905 16.0286 2.3781 11.4086 2.3781C9.96286 2.3781 8.59048 2.74476 7.40667 3.42571ZM16.3848 12.3829C16.5524 11.8695 16.6467 11.3248 16.6467 10.759C16.6467 9.71143 16.3219 8.70571 15.7771 7.8781L16.5314 7.12381C17.2648 8.14 17.6943 9.39714 17.6943 10.759C17.6943 11.6286 17.5057 12.4352 17.1705 13.1895L16.3848 12.3829Z" fill="#324A50"/>
</svg>
