<svg width="22" height="22" viewBox="0 0 22 22" fill="none" xmlns="http://www.w3.org/2000/svg">
<path d="M10.5598 0L13.7704 7.34836L21.1178 10.5589L13.7694 13.7694L10.5589 21.1187L7.34836 13.7694L0 10.5589L7.34836 7.34836L10.5598 0ZM19.1188 3.05691L17.6764 3.77445L19.1188 4.49291L19.8373 5.93719L20.5557 4.49291L22 3.77537L20.5557 3.05691L19.8382 1.61263L19.1188 3.05691ZM10.5598 4.59594L8.74756 8.74572L4.59686 10.5589L8.74664 12.3721L10.5598 16.5228L12.373 12.3721L16.5237 10.5598L12.373 8.74572L10.5598 4.59594ZM17.29 13.5726L18.4859 15.9736L20.8869 17.1695L18.4859 18.3645L17.29 20.7655L16.0941 18.3645L13.6931 17.1686L16.0941 15.9736L17.29 13.5726Z" fill="#324A50"/>
</svg>
