<svg width="27" height="23" viewBox="0 0 27 23" fill="none" xmlns="http://www.w3.org/2000/svg">
<path d="M19.2692 1H2.92308C1.86099 1 1 1.86099 1 2.92308V14.4615C1 15.5236 1.86099 16.3846 2.92308 16.3846H19.2692C20.3313 16.3846 21.1923 15.5236 21.1923 14.4615V2.92308C21.1923 1.86099 20.3313 1 19.2692 1Z" stroke="#324A50" stroke-width="2" stroke-linecap="round" stroke-linejoin="round"/>
<path d="M11.096 11.5768C12.6892 11.5768 13.9807 10.2854 13.9807 8.69223C13.9807 7.0991 12.6892 5.80762 11.096 5.80762C9.50291 5.80762 8.21143 7.0991 8.21143 8.69223C8.21143 10.2854 9.50291 11.5768 11.096 11.5768Z" stroke="#324A50" stroke-width="2" stroke-linecap="round" stroke-linejoin="round"/>
<path d="M6.76904 21.1923H24.0767C24.5868 21.1923 25.0759 20.9897 25.4366 20.629C25.7972 20.2684 25.9998 19.7792 25.9998 19.2692V9.65381" stroke="#324A50" stroke-width="2" stroke-linecap="round" stroke-linejoin="round"/>
</svg>
