<svg width="25" height="19" viewBox="0 0 25 19" fill="none" xmlns="http://www.w3.org/2000/svg">
<path d="M22.5823 5.27328C22.9485 5.47672 23.2822 5.72492 23.5833 6.01788C23.8844 6.31084 24.1366 6.63635 24.3401 6.99442C24.5435 7.35248 24.7063 7.73088 24.8283 8.12963C24.9504 8.52839 25.0074 8.94341 24.9992 9.37471H23.4368C23.4368 8.95155 23.3554 8.54873 23.1927 8.16625C23.0299 7.78378 22.8061 7.4542 22.5213 7.17752C22.2365 6.90083 21.9028 6.67704 21.5203 6.50615C21.1379 6.33526 20.735 6.24981 20.3119 6.24981C19.8806 6.24981 19.4778 6.33119 19.1034 6.49394C18.7291 6.6567 18.3995 6.88049 18.1147 7.16531C17.8299 7.45013 17.6061 7.78378 17.4433 8.16625C17.2806 8.54873 17.1951 8.95155 17.187 9.37471C17.187 10.1153 17.0202 10.8192 16.6865 11.4865C16.3529 12.1538 15.8849 12.7071 15.2827 13.1466C15.8117 13.4151 16.2878 13.7447 16.7109 14.1353C17.1341 14.5259 17.5003 14.9654 17.8095 15.4536C18.1187 15.9419 18.3507 16.4627 18.5053 17.0161C18.6599 17.5695 18.7413 18.1472 18.7494 18.7494H17.187C17.187 18.1065 17.0649 17.5003 16.8208 16.9306C16.5766 16.361 16.2389 15.8646 15.8076 15.4414C15.3763 15.0183 14.8799 14.6846 14.3184 14.4405C13.7569 14.1963 13.1506 14.0702 12.4996 14.0621C11.8567 14.0621 11.2505 14.1841 10.6808 14.4283C10.1112 14.6724 9.61478 15.0101 9.19161 15.4414C8.76845 15.8727 8.4348 16.3691 8.19067 16.9306C7.94653 17.4921 7.8204 18.0984 7.81226 18.7494H6.24981C6.24981 18.1554 6.33119 17.5817 6.49394 17.0283C6.6567 16.4749 6.88862 15.9541 7.18972 15.4658C7.49082 14.9776 7.85295 14.5381 8.27611 14.1475C8.69928 13.7569 9.17941 13.4233 9.7165 13.1466C9.12244 12.7071 8.65859 12.1538 8.32494 11.4865C7.99129 10.8192 7.8204 10.1153 7.81226 9.37471C7.81226 8.95155 7.73088 8.54873 7.56813 8.16625C7.40537 7.78378 7.18158 7.4542 6.89676 7.17752C6.61194 6.90083 6.27829 6.67704 5.89582 6.50615C5.51334 6.33526 5.11052 6.24981 4.68736 6.24981C4.25605 6.24981 3.85324 6.33119 3.4789 6.49394C3.10456 6.6567 2.77498 6.88049 2.49016 7.16531C2.20534 7.45013 1.98155 7.78378 1.81879 8.16625C1.65604 8.54873 1.57059 8.95155 1.56245 9.37471H0C0 8.95155 0.0569644 8.54059 0.170893 8.14184C0.284822 7.74309 0.443509 7.36468 0.646953 7.00662C0.850397 6.64856 1.10674 6.32305 1.41597 6.03009C1.72521 5.73713 2.05886 5.48486 2.41692 5.27328C2.14837 4.98845 1.94086 4.65887 1.79438 4.28454C1.6479 3.9102 1.57059 3.52366 1.56245 3.1249C1.56245 2.70174 1.64383 2.29892 1.80659 1.91645C1.96934 1.53397 2.19313 1.20439 2.47795 0.927706C2.76277 0.651022 3.09235 0.427233 3.46669 0.25634C3.84103 0.0854466 4.24792 0 4.68736 0C5.11052 0 5.51334 0.0813777 5.89582 0.244133C6.27829 0.406889 6.60787 0.630677 6.88456 0.915499C7.16124 1.20032 7.38503 1.53397 7.55592 1.91645C7.72681 2.29892 7.81226 2.70174 7.81226 3.1249C7.81226 3.52366 7.73902 3.9102 7.59254 4.28454C7.44606 4.65887 7.23448 4.98845 6.9578 5.27328C7.62509 5.63948 8.17032 6.14402 8.59349 6.7869C9.03293 6.13588 9.59443 5.6232 10.278 5.24886C10.9616 4.87453 11.7021 4.68736 12.4996 4.68736C13.289 4.68736 14.0255 4.87453 14.709 5.24886C15.3926 5.6232 15.9582 6.13588 16.4058 6.7869C16.8289 6.14402 17.3741 5.63948 18.0414 5.27328C17.7729 4.98845 17.5654 4.65887 17.4189 4.28454C17.2724 3.9102 17.1951 3.52366 17.187 3.1249C17.187 2.70174 17.2684 2.29892 17.4311 1.91645C17.5939 1.53397 17.8177 1.20439 18.1025 0.927706C18.3873 0.651022 18.7169 0.427233 19.0912 0.25634C19.4656 0.0854466 19.8724 0 20.3119 0C20.735 0 21.1379 0.0813777 21.5203 0.244133C21.9028 0.406889 22.2324 0.630677 22.5091 0.915499C22.7858 1.20032 23.0096 1.53397 23.1804 1.91645C23.3513 2.29892 23.4368 2.70174 23.4368 3.1249C23.4368 3.52366 23.3635 3.9102 23.2171 4.28454C23.0706 4.65887 22.859 4.98845 22.5823 5.27328ZM3.1249 3.1249C3.1249 3.34462 3.16559 3.54807 3.24697 3.73524C3.32835 3.92241 3.43821 4.08516 3.57655 4.2235C3.71489 4.36185 3.88172 4.47577 4.07702 4.56529C4.27233 4.65481 4.47577 4.69549 4.68736 4.68736C4.90708 4.68736 5.11052 4.64667 5.29769 4.56529C5.48486 4.48391 5.64761 4.37405 5.78596 4.23571C5.9243 4.09737 6.03823 3.93054 6.12774 3.73524C6.21726 3.53993 6.25795 3.33649 6.24981 3.1249C6.24981 2.90518 6.20912 2.70174 6.12774 2.51457C6.04636 2.3274 5.9365 2.16465 5.79816 2.02631C5.65982 1.88796 5.493 1.77403 5.29769 1.68452C5.10238 1.595 4.89894 1.55431 4.68736 1.56245C4.46764 1.56245 4.26419 1.60314 4.07702 1.68452C3.88986 1.7659 3.7271 1.87576 3.58876 2.0141C3.45042 2.15244 3.33649 2.31927 3.24697 2.51457C3.15746 2.70988 3.11677 2.91332 3.1249 3.1249ZM12.4996 12.4996C12.9228 12.4996 13.3256 12.4182 13.7081 12.2555C14.0906 12.0927 14.4201 11.8689 14.6968 11.5841C14.9735 11.2993 15.1973 10.9697 15.3682 10.5954C15.5391 10.221 15.6245 9.81415 15.6245 9.37471C15.6245 8.95155 15.5431 8.54873 15.3804 8.16625C15.2176 7.78378 14.9938 7.4542 14.709 7.17752C14.4242 6.90083 14.0906 6.67704 13.7081 6.50615C13.3256 6.33526 12.9228 6.24981 12.4996 6.24981C12.0683 6.24981 11.6655 6.33119 11.2912 6.49394C10.9168 6.6567 10.5872 6.88049 10.3024 7.16531C10.0176 7.45013 9.79381 7.78378 9.63105 8.16625C9.4683 8.54873 9.38285 8.95155 9.37471 9.37471C9.37471 9.80602 9.45609 10.2088 9.61885 10.5832C9.7816 10.9575 10.0054 11.2871 10.2902 11.5719C10.575 11.8567 10.9046 12.0805 11.279 12.2433C11.6533 12.406 12.0602 12.4915 12.4996 12.4996ZM18.7494 3.1249C18.7494 3.34462 18.7901 3.54807 18.8715 3.73524C18.9529 3.92241 19.0627 4.08516 19.2011 4.2235C19.3394 4.36185 19.5062 4.47577 19.7015 4.56529C19.8969 4.65481 20.1003 4.69549 20.3119 4.68736C20.5316 4.68736 20.735 4.64667 20.9222 4.56529C21.1094 4.48391 21.2721 4.37405 21.4105 4.23571C21.5488 4.09737 21.6628 3.93054 21.7523 3.73524C21.8418 3.53993 21.8825 3.33649 21.8743 3.1249C21.8743 2.90518 21.8336 2.70174 21.7523 2.51457C21.6709 2.3274 21.561 2.16465 21.4227 2.02631C21.2843 1.88796 21.1175 1.77403 20.9222 1.68452C20.7269 1.595 20.5235 1.55431 20.3119 1.56245C20.0922 1.56245 19.8887 1.60314 19.7015 1.68452C19.5144 1.7659 19.3516 1.87576 19.2133 2.0141C19.0749 2.15244 18.961 2.31927 18.8715 2.51457C18.782 2.70988 18.7413 2.91332 18.7494 3.1249Z" fill="#324A50"/>
</svg>
