<svg width="25" height="25" viewBox="0 0 25 25" fill="none" xmlns="http://www.w3.org/2000/svg">
<path d="M4.16667 3.12497H3.125V23.8208L4.74479 22.7416L7.23542 21.0812L9.24583 22.6885L9.89583 23.2093L10.5469 22.6885L12.5 21.125L14.4531 22.6875L15.1042 23.2083L15.7552 22.6875L17.7646 21.0802L20.2552 22.7406L21.875 23.8208V3.12497H4.16667ZM5.20833 19.9271V5.20831H19.7917V19.9271L18.2865 18.9239L17.6521 18.501L17.0583 18.9771L15.1042 20.5396L13.151 18.9771L12.5 18.4562L11.849 18.9771L9.89583 20.5396L7.94271 18.9771L7.34792 18.501L6.71354 18.9239L5.20833 19.9271ZM8.33333 8.3333H7.29167V10.4166H17.7083V8.3333H8.33333ZM11.4583 12.5H17.7083V14.5833H11.4583V12.5ZM8.33333 14.5833H7.29167V12.4958H9.37917V14.5833H8.33333Z" fill="#324A50"/>
</svg>
