<svg width="27" height="27" viewBox="0 0 27 27" fill="none" xmlns="http://www.w3.org/2000/svg">
<path d="M21.4545 7.81818C21.4545 7.81818 15.7727 15.7727 7.25 15.7727M7.25 15.7727C4.97727 15.7727 1 16.9091 1 21.4545V26H13.5V21.4545C13.5 18.6136 16.9091 20.3182 21.4545 12.3636L19.75 10.6591M7.25 15.7727C8.30484 15.7727 9.31647 15.3537 10.0624 14.6078C10.8082 13.8619 11.2273 12.8503 11.2273 11.7955C11.2273 10.7406 10.8082 9.72898 10.0624 8.9831C9.31647 8.23721 8.30484 7.81818 7.25 7.81818C6.19516 7.81818 5.18353 8.23721 4.43764 8.9831C3.69176 9.72898 3.27273 10.7406 3.27273 11.7955C3.27273 12.8503 3.69176 13.8619 4.43764 14.6078C5.18353 15.3537 6.19516 15.7727 7.25 15.7727ZM3.27273 5.54545V2.13636H26V18.0455H22.5909M12.3636 1H16.9091V3.27273H12.3636V1Z" stroke="#324A50" stroke-width="1.5"/>
</svg>
