<svg width="31" height="32" viewBox="0 0 31 32" fill="none" xmlns="http://www.w3.org/2000/svg">
<path d="M26.4824 4.53326C25.0542 3.09063 23.3531 1.94681 21.4782 1.16851C19.6034 0.390217 17.5923 -0.00697907 15.5623 9.27969e-05C7.05678 9.27969e-05 0.124623 6.93225 0.124623 15.4378C0.124623 18.1639 0.841206 20.8122 2.1809 23.1488L0 31.1559L8.17839 29.0061C10.4372 30.2368 12.9764 30.891 15.5623 30.891C24.0678 30.891 31 23.9589 31 15.4534C31 11.3252 29.3955 7.44632 26.4824 4.53326ZM15.5623 28.274C13.2568 28.274 10.998 27.6508 9.0196 26.4825L8.55226 26.2021L3.69196 27.4795L4.98492 22.7438L4.67337 22.2609C3.39247 20.2155 2.71233 17.8512 2.71055 15.4378C2.71055 8.36542 8.47437 2.6016 15.5467 2.6016C18.9739 2.6016 22.1985 3.9413 24.6131 6.37145C25.8086 7.56154 26.7561 8.9771 27.4006 10.5361C28.045 12.0951 28.3736 13.7664 28.3673 15.4534C28.3985 22.5257 22.6347 28.274 15.5623 28.274ZM22.6035 18.678C22.2141 18.491 20.3136 17.5564 19.9709 17.4162C19.6126 17.2915 19.3633 17.2292 19.0985 17.6031C18.8337 17.9926 18.1015 18.8649 17.8834 19.1142C17.6653 19.379 17.4317 19.4101 17.0422 19.2076C16.6528 19.0207 15.4065 18.6001 13.9422 17.2915C12.7894 16.2634 12.0261 15.0016 11.7925 14.6122C11.5744 14.2227 11.7613 14.0202 11.9638 13.8177C12.1352 13.6463 12.3533 13.3659 12.5402 13.1478C12.7271 12.9297 12.805 12.7584 12.9296 12.5091C13.0543 12.2443 12.992 12.0262 12.8985 11.8393C12.805 11.6524 12.0261 9.75185 11.7146 8.97296C11.403 8.22522 11.0759 8.31869 10.8422 8.30311H10.0945C9.82965 8.30311 9.42462 8.39657 9.06633 8.78602C8.72362 9.17547 7.72663 10.1101 7.72663 12.0106C7.72663 13.9111 9.11306 15.7493 9.3 15.9986C9.48693 16.2634 12.0261 20.1579 15.8894 21.8247C16.8085 22.2297 17.5251 22.4634 18.0859 22.6348C19.005 22.9307 19.8462 22.884 20.5161 22.7905C21.2638 22.6815 22.806 21.8559 23.1176 20.9524C23.4447 20.0488 23.4447 19.2855 23.3357 19.1142C23.2266 18.9428 22.993 18.8649 22.6035 18.678Z" fill="#324A50"/>
</svg>
