<svg width="23" height="23" viewBox="0 0 23 23" fill="none" xmlns="http://www.w3.org/2000/svg">
<g clip-path="url(#clip0_365_602)">
<path d="M21.4351 5.23898C18.4853 3.28919 15.0254 2.25391 11.4895 2.263C7.95351 2.27209 4.49899 3.32516 1.55926 5.29009C1.48962 5.33707 1.42992 5.39731 1.38356 5.46737C1.33721 5.53743 1.3051 5.61593 1.28908 5.69839C1.25673 5.86493 1.29187 6.03751 1.38676 6.17814C1.48164 6.31878 1.62851 6.41597 1.79506 6.44832C1.9616 6.48067 2.13417 6.44553 2.27481 6.35064C5.0055 4.52755 8.21348 3.55084 11.4968 3.54289C14.7801 3.53493 17.9928 4.49608 20.7323 6.30592C20.8738 6.39579 21.0449 6.42645 21.2088 6.39131C21.3727 6.35617 21.5162 6.25803 21.6084 6.11806C21.7006 5.97809 21.7341 5.80749 21.7017 5.64304C21.6693 5.4786 21.5735 5.33348 21.4351 5.23898Z" fill="black"/>
<path d="M11.5328 6.84889C8.83492 6.84554 6.20031 7.66579 3.98113 9.2C3.88063 9.30733 3.82022 9.44605 3.81011 9.59275C3.79999 9.73944 3.84079 9.88514 3.92562 10.0052C4.01045 10.1254 4.13411 10.2125 4.27575 10.2521C4.41738 10.2916 4.56831 10.281 4.70308 10.2222C6.70558 8.8529 9.07494 8.12026 11.5009 8.12026C13.9268 8.12026 16.2961 8.8529 18.2986 10.2222C18.4384 10.3023 18.6032 10.3266 18.7601 10.2904C18.917 10.2541 19.0544 10.1599 19.1448 10.0267C19.2353 9.89344 19.2721 9.73096 19.2478 9.57175C19.2236 9.41255 19.1402 9.26836 19.0142 9.16805C16.8109 7.65912 14.2033 6.85078 11.5328 6.84889Z" fill="black"/>
<path d="M11.5324 11.4361C9.69246 11.4392 7.90166 12.0301 6.42128 13.1227C6.2964 13.2268 6.21589 13.3746 6.19614 13.5359C6.17639 13.6973 6.2189 13.8601 6.31499 13.9912C6.41109 14.1223 6.55355 14.2119 6.71336 14.2416C6.87318 14.2714 7.03832 14.2391 7.17516 14.1513C8.43337 13.2227 9.95388 12.7174 11.5177 12.7082C13.0815 12.699 14.6078 13.1864 15.8768 14.1002C15.9429 14.1639 16.022 14.2126 16.1086 14.243C16.1952 14.2734 16.2873 14.2848 16.3787 14.2764C16.4701 14.268 16.5587 14.2399 16.6383 14.1942C16.7179 14.1485 16.7867 14.0862 16.84 14.0115C16.8934 13.9368 16.93 13.8515 16.9474 13.7614C16.9649 13.6713 16.9626 13.5785 16.941 13.4893C16.9193 13.4001 16.8786 13.3166 16.8218 13.2445C16.7649 13.1725 16.6932 13.1135 16.6115 13.0716C15.1335 12.004 13.3556 11.4315 11.5324 11.4361Z" fill="black"/>
<path d="M11.5009 15.6016C10.9954 15.6016 10.5013 15.7514 10.0811 16.0323C9.66082 16.3131 9.33327 16.7122 9.13984 17.1791C8.94642 17.6461 8.89581 18.16 8.99442 18.6557C9.09302 19.1514 9.33642 19.6068 9.69382 19.9642C10.0512 20.3216 10.5066 20.565 11.0023 20.6636C11.498 20.7622 12.0119 20.7116 12.4788 20.5181C12.9458 20.3247 13.3449 19.9972 13.6257 19.5769C13.9065 19.1566 14.0564 18.6626 14.0564 18.1571C14.0564 17.4793 13.7872 16.8293 13.3079 16.3501C12.8287 15.8708 12.1786 15.6016 11.5009 15.6016ZM11.5009 19.4349C11.2481 19.4349 11.0011 19.36 10.791 19.2195C10.5808 19.0791 10.4171 18.8796 10.3204 18.6461C10.2236 18.4126 10.1983 18.1557 10.2476 17.9078C10.2969 17.66 10.4186 17.4323 10.5973 17.2536C10.776 17.0749 11.0037 16.9532 11.2516 16.9039C11.4995 16.8546 11.7564 16.8799 11.9899 16.9766C12.2233 17.0733 12.4229 17.2371 12.5633 17.4472C12.7037 17.6574 12.7786 17.9044 12.7786 18.1571C12.7786 18.496 12.644 18.821 12.4044 19.0606C12.1648 19.3003 11.8398 19.4349 11.5009 19.4349Z" fill="black"/>
</g>
<defs>
<clipPath id="clip0_365_602">
<rect width="23" height="23" fill="white"/>
</clipPath>
</defs>
</svg>
