<svg width="22" height="22" viewBox="0 0 22 22" fill="none" xmlns="http://www.w3.org/2000/svg">
<path d="M8.9375 3.4375H20.2812V4.8125H8.9375V3.4375ZM1.71875 4.125C1.71875 4.6689 1.88003 5.20058 2.18221 5.65282C2.48438 6.10505 2.91387 6.45753 3.41637 6.66567C3.91887 6.87381 4.4718 6.92827 5.00525 6.82216C5.5387 6.71605 6.0287 6.45414 6.41329 6.06954C6.79789 5.68495 7.0598 5.19495 7.16591 4.6615C7.27202 4.12805 7.21756 3.57512 7.00942 3.07262C6.80128 2.57012 6.4488 2.14063 5.99657 1.83846C5.54433 1.53628 5.01265 1.375 4.46875 1.375C3.73966 1.37582 3.04066 1.66581 2.52511 2.18136C2.00956 2.69691 1.71957 3.39591 1.71875 4.125ZM4.46875 2.75C4.7407 2.75 5.00654 2.83064 5.23266 2.98173C5.45878 3.13282 5.63501 3.34756 5.73908 3.59881C5.84315 3.85006 5.87038 4.12653 5.81733 4.39325C5.76428 4.65997 5.63332 4.90497 5.44102 5.09727C5.24872 5.28957 5.00372 5.42053 4.737 5.47358C4.47028 5.52663 4.19381 5.4994 3.94256 5.39533C3.69131 5.29126 3.47657 5.11503 3.32548 4.88891C3.17439 4.66279 3.09375 4.39695 3.09375 4.125C3.09416 3.76045 3.23916 3.41095 3.49693 3.15318C3.7547 2.89541 4.1042 2.75041 4.46875 2.75ZM8.9375 10.3125H20.2812V11.6875H8.9375V10.3125ZM4.46875 13.75C5.01265 13.75 5.54433 13.5887 5.99657 13.2865C6.4488 12.9844 6.80128 12.5549 7.00942 12.0524C7.21756 11.5499 7.27202 10.9969 7.16591 10.4635C7.0598 9.93005 6.79789 9.44005 6.41329 9.05546C6.0287 8.67086 5.5387 8.40895 5.00525 8.30284C4.4718 8.19673 3.91887 8.25119 3.41637 8.45933C2.91387 8.66747 2.48438 9.01995 2.18221 9.47218C1.88003 9.92442 1.71875 10.4561 1.71875 11C1.71957 11.7291 2.00956 12.4281 2.52511 12.9436C3.04066 13.4592 3.73966 13.7492 4.46875 13.75ZM4.46875 9.625C4.7407 9.625 5.00654 9.70564 5.23266 9.85673C5.45878 10.0078 5.63501 10.2226 5.73908 10.4738C5.84315 10.7251 5.87038 11.0015 5.81733 11.2682C5.76428 11.535 5.63332 11.78 5.44102 11.9723C5.24872 12.1646 5.00372 12.2955 4.737 12.3486C4.47028 12.4016 4.19381 12.3744 3.94256 12.2703C3.69131 12.1663 3.47657 11.99 3.32548 11.7639C3.17439 11.5378 3.09375 11.2719 3.09375 11C3.09416 10.6355 3.23916 10.286 3.49693 10.0282C3.7547 9.77041 4.1042 9.62541 4.46875 9.625ZM8.9375 17.1875H20.2812V18.5625H8.9375V17.1875ZM4.46875 20.625C5.01265 20.625 5.54433 20.4637 5.99657 20.1615C6.4488 19.8594 6.80128 19.4299 7.00942 18.9274C7.21756 18.4249 7.27202 17.8719 7.16591 17.3385C7.0598 16.8051 6.79789 16.3151 6.41329 15.9305C6.0287 15.5459 5.5387 15.2839 5.00525 15.1778C4.4718 15.0717 3.91887 15.1262 3.41637 15.3343C2.91387 15.5425 2.48438 15.8949 2.18221 16.3472C1.88003 16.7994 1.71875 17.3311 1.71875 17.875C1.71957 18.6041 2.00956 19.3031 2.52511 19.8186C3.04066 20.3342 3.73966 20.6242 4.46875 20.625ZM4.46875 16.5C4.7407 16.5 5.00654 16.5806 5.23266 16.7317C5.45878 16.8828 5.63501 17.0976 5.73908 17.3488C5.84315 17.6001 5.87038 17.8765 5.81733 18.1432C5.76428 18.41 5.63332 18.655 5.44102 18.8473C5.24872 19.0396 5.00372 19.1705 4.737 19.2236C4.47028 19.2766 4.19381 19.2494 3.94256 19.1453C3.69131 19.0413 3.47657 18.865 3.32548 18.6389C3.17439 18.4128 3.09375 18.1469 3.09375 17.875C3.09416 17.5105 3.23916 17.161 3.49693 16.9032C3.7547 16.6454 4.1042 16.5004 4.46875 16.5Z" fill="#324A50"/>
</svg>
